<svg width="20" height="22" viewBox="0 0 20 22" fill="none" xmlns="http://www.w3.org/2000/svg">
<g clip-path="url(#clip0_831_5642)">
<path d="M6.96015 11.2689C7.37217 7.97393 8.68821 5.9568 10.8293 5.54102C10.1912 7.16626 10.6189 8.46905 11.8722 9.54725C12.0471 9.23201 12.2005 8.9553 12.3902 8.61348C12.868 9.65254 13.3854 10.5832 13.7343 11.5778C14.4474 13.6104 13.4195 15.7997 11.5483 16.4038C11.4989 16.4199 11.443 16.4143 11.5225 16.4076C11.6912 15.87 11.9854 15.3026 12.0201 14.7184C12.0558 14.1176 11.8383 13.5003 11.7115 12.7751C11.3787 13.0299 11.2016 13.1653 10.9442 13.3623C10.9827 12.0935 10.7336 11.0573 9.80281 10.4734C9.27766 11.4107 8.76998 12.3166 8.2627 13.2222C8.24642 13.2512 8.223 13.2747 8.20117 13.2999C8.08904 13.4284 8.12873 13.4284 8.08269 13.215C8.03863 12.9694 7.99476 12.7236 7.95031 12.4784C7.16417 13.4253 7.3295 14.9869 8.35002 16.2569C6.0851 15.6611 5.01416 12.6671 5.93585 10.1392C6.26908 10.5068 6.61461 10.888 6.95995 11.2691L6.96015 11.2689Z" fill="#E53E14"/>
<path d="M13.5005 19.8253C12.1948 20.3565 10.9363 20.6303 9.62227 20.6122C2.70862 20.5168 -1.69023 12.6706 1.65059 6.38367C1.72243 6.24871 1.77483 6.06946 1.88756 5.9992C2.04018 5.9038 2.31585 5.79666 2.40576 5.87001C2.54052 5.98004 2.60959 6.24191 2.61197 6.44053C2.61395 6.59218 2.46868 6.74547 2.38988 6.89856C0.757481 10.0749 1.18181 13.9639 3.45824 16.6935C5.70808 19.3912 9.37161 20.3935 12.5989 19.1921C12.7714 19.1278 12.9363 19.0417 13.2118 18.9175C12.8359 18.805 12.5334 18.772 12.298 18.6243C12.1327 18.5204 12.0587 18.2602 11.9438 18.0698C12.1359 17.9639 12.3494 17.7402 12.5161 17.7729C13.1897 17.9056 13.8518 18.1075 14.5125 18.3041C14.8595 18.4073 14.9897 18.6507 14.8349 19.0172C14.5661 19.6532 14.327 20.3056 14.0128 20.9163C13.9259 21.0852 13.6184 21.1318 13.412 21.2346C13.3519 21.0047 13.24 20.7731 13.2467 20.5452C13.2531 20.3352 13.3866 20.1292 13.5001 19.8253H13.5005Z" fill="#E53E14"/>
<path d="M6.39398 3.06198C6.73713 3.16562 7.03503 3.19364 7.25772 3.34281C7.43296 3.46025 7.51533 3.72707 7.63897 3.92755C7.4415 4.02357 7.22378 4.23022 7.05012 4.19602C6.39497 4.06683 5.75293 3.86388 5.1085 3.67927C4.72982 3.57069 4.59566 3.32509 4.76118 2.93444C5.0305 2.29901 5.27323 1.64916 5.58344 1.03599C5.6652 0.874248 5.95318 0.824592 6.14629 0.723633C6.22171 0.948216 6.35806 1.17362 6.35468 1.39697C6.35151 1.61084 6.20305 1.82244 6.09429 2.09565C6.73515 1.91248 7.31884 1.69449 7.9206 1.5822C11.7316 0.870951 14.9168 2.06639 17.2159 5.28144C19.5026 8.47918 19.6556 11.9734 17.954 15.5463C17.9294 15.5981 17.9022 15.6489 17.873 15.6982C17.7075 15.9774 17.5549 16.3381 17.1543 16.1092C16.7659 15.8873 16.9285 15.5628 17.0908 15.2622C17.8744 13.8123 18.2185 12.2559 18.1653 10.5954C17.9796 4.77417 12.0968 0.734141 6.86435 2.84007C6.72939 2.89447 6.59999 2.96432 6.39398 3.06198Z" fill="#E53E14"/>
</g>
<defs>
<clipPath id="clip0_831_5642">
<rect width="18.5878" height="20.5106" fill="white" transform="translate(0.509766 0.723633)"/>
</clipPath>
</defs>
</svg>
