<svg width="93" height="100" viewBox="0 0 93 100" fill="none" xmlns="http://www.w3.org/2000/svg">
<path d="M87.9223 60.5097L85.5417 81.5288L65.8624 84.5543L45.707 45.5415L87.9223 60.5097Z" fill="url(#paint0_linear_306_9388)"/>
<path d="M15.8691 69.1081L49.5144 48.5667L44.5946 90.9234L19.678 89.1718L15.8691 69.1081Z" fill="url(#paint1_linear_306_9388)"/>
<path d="M70.3058 86.9425L53.8006 99.9999L37.1367 89.0126L49.0395 51.9106L70.3058 86.9425Z" fill="url(#paint2_linear_306_9388)"/>
<path d="M80.7799 27.3887L42.8496 44.9046L82.3669 60.9874L93.0001 44.9046L80.7799 27.3887Z" fill="url(#paint3_linear_306_9388)"/>
<path d="M45.707 45.7006L55.3475 8.59863L76.4909 10.8798L79.9871 31.573L45.707 45.7006Z" fill="url(#paint4_linear_306_9388)"/>
<path d="M59.4176 18.9557L41.5712 4.40355L24.2507 16.3698L46.051 58.2033L59.4176 18.9557Z" fill="url(#paint5_linear_306_9388)"/>
<path d="M30.2345 20.7007L7.55834 24.5393L5.07812 45.4919L50.7849 56.688L30.2345 20.7007Z" fill="url(#paint6_linear_306_9388)"/>
<path d="M0 58.0571L12.8969 41.4014L49.6444 54.2135L13.957 75.1932L0 58.0571Z" fill="url(#paint7_linear_306_9388)"/>
<mask id="mask0_306_9388" style="mask-type:alpha" maskUnits="userSpaceOnUse" x="8" y="39" width="43" height="19">
<path d="M50.6269 57.1657L8.57031 46.4969L12.3792 39.3313L49.0398 45.7007L50.6269 57.1657Z" fill="#D9D9D9"/>
</mask>
<g mask="url(#mask0_306_9388)">
<path d="M0 58.0576L12.8969 41.4019L49.6444 54.2139L13.957 75.1937L0 58.0576Z" fill="url(#paint8_linear_306_9388)"/>
</g>
<ellipse cx="48.5631" cy="51.9109" rx="19.3619" ry="19.4268" fill="url(#paint9_radial_306_9388)"/>
<path d="M47.048 26.5011C17.0529 20.4501 13.2439 55.3228 39.1125 55.9598H77.0429" stroke="#2D3691" stroke-width="4.29927"/>
<path d="M62.2838 40.5139H42.2871V71.7242" stroke="#2D3691" stroke-width="4.29927"/>
<path d="M64.3477 83.03V56.1191" stroke="#2D3691" stroke-width="4.29927"/>
<defs>
<linearGradient id="paint0_linear_306_9388" x1="83.796" y1="56.5288" x2="52.2026" y2="76.1868" gradientUnits="userSpaceOnUse">
<stop stop-color="#F5942D"/>
<stop offset="0.535036" stop-color="#FDC58D"/>
<stop offset="0.802355" stop-color="white"/>
</linearGradient>
<linearGradient id="paint1_linear_306_9388" x1="48.5621" y1="78.503" x2="34.3545" y2="49.9563" gradientUnits="userSpaceOnUse">
<stop stop-color="#F5942D"/>
<stop offset="0.535036" stop-color="#FDC58D"/>
<stop offset="0.738068" stop-color="white"/>
</linearGradient>
<linearGradient id="paint2_linear_306_9388" x1="68.5601" y1="78.3438" x2="36.3132" y2="66.0022" gradientUnits="userSpaceOnUse">
<stop stop-color="#F5942D"/>
<stop offset="0.535036" stop-color="#FDC58D"/>
<stop offset="0.802355" stop-color="white"/>
</linearGradient>
<linearGradient id="paint3_linear_306_9388" x1="69.4935" y1="27.3887" x2="81.25" y2="62.5468" gradientUnits="userSpaceOnUse">
<stop stop-color="#F5942D"/>
<stop offset="0.535036" stop-color="#FDC58D"/>
<stop offset="0.802355" stop-color="white"/>
</linearGradient>
<linearGradient id="paint4_linear_306_9388" x1="63.0058" y1="8.59863" x2="80.4989" y2="42.8221" gradientUnits="userSpaceOnUse">
<stop stop-color="#F5942D"/>
<stop offset="0.535036" stop-color="#FDC58D"/>
<stop offset="0.802355" stop-color="white"/>
</linearGradient>
<linearGradient id="paint5_linear_306_9388" x1="23.4147" y1="27.2849" x2="68.2796" y2="31.1603" gradientUnits="userSpaceOnUse">
<stop stop-color="#F5942D"/>
<stop offset="0.535036" stop-color="#FDC58D"/>
<stop offset="0.802355" stop-color="white"/>
</linearGradient>
<linearGradient id="paint6_linear_306_9388" x1="12.6959" y1="53.3292" x2="45.3431" y2="22.2097" gradientUnits="userSpaceOnUse">
<stop stop-color="#F5942D"/>
<stop offset="0.535036" stop-color="#FDC58D"/>
<stop offset="0.802355" stop-color="white"/>
</linearGradient>
<linearGradient id="paint7_linear_306_9388" x1="45.2276" y1="64.9436" x2="43.1627" y2="38.1222" gradientUnits="userSpaceOnUse">
<stop stop-color="#F5942D"/>
<stop offset="0.535036" stop-color="#FDC58D"/>
<stop offset="0.821737" stop-color="white"/>
</linearGradient>
<linearGradient id="paint8_linear_306_9388" x1="45.2276" y1="64.9441" x2="43.1627" y2="38.1227" gradientUnits="userSpaceOnUse">
<stop stop-color="#F5942D"/>
<stop offset="0.535036" stop-color="#FDC58D"/>
<stop offset="0.821737" stop-color="white"/>
</linearGradient>
<radialGradient id="paint9_radial_306_9388" cx="0" cy="0" r="1" gradientUnits="userSpaceOnUse" gradientTransform="translate(48.563 54.8789) rotate(90) scale(18.3696 18.3083)">
<stop stop-color="#FCBF80"/>
<stop offset="0.0001" stop-color="#FCBF80"/>
<stop offset="1" stop-color="#FDC287" stop-opacity="0"/>
</radialGradient>
</defs>
</svg>
