<svg version="1.2" xmlns="http://www.w3.org/2000/svg" viewBox="0 0 278 218" width="278" height="218">
	<title>Group 1000003718-svg</title>
	<style>
		.s0 { opacity: .4;fill: #d8d8d8 } 
		.s1 { fill: #27bc48 } 
		.s2 { fill: #00b5ce } 
		.s3 { fill: #363538 } 
	</style>
	<path id="Layer" fill-rule="evenodd" class="s0" d="m99.8 164.6c-39.4 0-71.4-32.1-71.4-71.5 0-39.5 32-71.5 71.4-71.5 39.4 0 71.4 32 71.4 71.5 0 39.4-32 71.5-71.4 71.5zm0-139.1c-37.3 0-67.6 30.3-67.6 67.6 0 37.3 30.3 67.6 67.6 67.6 37.2 0 67.5-30.3 67.5-67.6 0-37.3-30.3-67.6-67.5-67.6z"/>
	<path id="Layer" fill-rule="evenodd" class="s0" d="m99.8 175.3c-45.3-0.1-82.1-36.9-82.1-82.2 0-45.4 36.8-82.2 82.1-82.2 45.3 0 82.1 36.8 82.1 82.2 0 45.3-36.8 82.1-82.1 82.1zm0-160.4c-43.2 0-78.2 35.1-78.2 78.3 0 43.1 35 78.3 78.2 78.3 43.1 0 78.2-35.2 78.2-78.3 0-43.2-35.1-78.3-78.2-78.3z"/>
	<path id="Layer" class="s1" d="m99.8 25.9c36 0.4 66.3 29.5 67 65.8 0.7 36-28.3 67-64.3 68.4-22.7 0.9-44.3-9.9-57.5-28.3-1.8-2.5-6-0.1-4.2 2.5 24.3 33.8 72.9 40.8 105.1 13.9 29.8-24.8 34-70.2 9.8-100.4-13.6-16.9-34.3-26.5-55.9-26.7-3.1 0-3.2 4.8 0 4.8z"/>
	<path id="Layer" class="s2" d="m99.8 15.2c25.8 0.3 50.2 13 64.6 34.6 14.3 21.5 17.1 49.4 7.1 73.2-9.6 23.3-30.6 40.7-55.1 46.1-25.4 5.6-52.6-2.3-71.2-20.6-22.9-22.5-29.4-57.5-16.6-86.9 1.3-2.9-2.9-5.4-4.2-2.5-12 27.7-8.7 60 9.7 84 16.6 21.9 43.7 34.3 71.1 32.4 27.3-1.8 52.4-17.4 66.1-41.1 13.8-23.8 14.6-53.6 2.4-78.2-13.8-28-42.9-45.6-73.9-45.8-3.1 0-3.2 4.8 0 4.8z"/>
	<path id="Layer" fill-rule="evenodd" class="s1" d="m41.4 120.7q0.1 0.5 0.5 0.8 0.3 0.3 0.9 0.3 0.8 0 1.2-0.6 0.3-0.6 0.3-2.1-0.2 0.4-0.7 0.6-0.5 0.2-1 0.2-0.7 0-1.3-0.3-0.6-0.3-0.9-0.9-0.3-0.5-0.3-1.3 0-1.2 0.7-1.9 0.7-0.7 1.9-0.7 1.4 0 2.1 0.9 0.6 1 0.6 3 0 1.4-0.3 2.3-0.2 0.9-0.8 1.3-0.5 0.5-1.5 0.5-1.2 0-1.8-0.6-0.6-0.6-0.7-1.5zm1.4-1.9q0.6 0 1-0.4 0.3-0.4 0.3-1 0-0.8-0.4-1.2-0.3-0.4-1-0.4-0.7 0-1.1 0.4-0.4 0.4-0.4 1.1 0 0.7 0.4 1.1 0.4 0.4 1.2 0.4zm8.9-2.9l-3 6.9h-1.3l3.1-6.8h-4v-1h5.2zm11.2 0.8q0.7 0 1.2 0.3 0.6 0.3 0.9 0.9 0.3 0.6 0.3 1.4v3.5h-1.2v-3.3q0-0.8-0.4-1.3-0.4-0.4-1.1-0.4-0.7 0-1.1 0.4-0.4 0.5-0.4 1.3v3.3h-1.2v-3.3q0-0.8-0.4-1.3-0.4-0.4-1.1-0.4-0.7 0-1.1 0.4-0.4 0.5-0.4 1.3v3.3h-1.2v-6h1.2v0.7q0.3-0.3 0.8-0.6 0.4-0.2 1-0.2 0.7 0 1.2 0.3 0.6 0.3 0.9 0.9 0.3-0.5 0.8-0.8 0.6-0.4 1.3-0.4zm4.6-0.6q-0.3 0-0.6-0.3-0.2-0.2-0.2-0.5 0-0.4 0.2-0.6 0.3-0.2 0.6-0.2 0.3 0 0.5 0.2 0.3 0.2 0.3 0.6 0 0.3-0.3 0.5-0.2 0.3-0.5 0.3zm0.6 0.7v6h-1.2v-6zm4.6-0.1q0.7 0 1.2 0.3 0.6 0.3 0.9 0.9 0.3 0.6 0.3 1.4v3.5h-1.2v-3.3q0-0.8-0.4-1.3-0.4-0.4-1.1-0.4-0.7 0-1.1 0.4-0.4 0.5-0.4 1.3v3.3h-1.2v-6h1.2v0.7q0.3-0.3 0.8-0.6 0.5-0.2 1-0.2z"/>
	<path id="Layer" fill-rule="evenodd" class="s2" d="m32.9 61.1q1-0.9 1.6-1.5 0.6-0.5 1-1.2 0.4-0.6 0.4-1.2 0-0.7-0.3-1-0.3-0.4-1-0.4-0.6 0-1 0.4-0.3 0.4-0.3 1.1h-1.2q0-1.2 0.7-1.9 0.7-0.6 1.8-0.6 1.2 0 1.8 0.6 0.7 0.7 0.7 1.7 0 0.8-0.4 1.5-0.4 0.7-0.9 1.3-0.6 0.6-1.4 1.3l-0.5 0.4h3.4v1.1h-5.2v-0.9zm5.5-2.4q0-1.8 0.7-2.9 0.6-1 2.1-1 1.6 0 2.2 1 0.6 1.1 0.6 2.9 0 1.9-0.6 3-0.6 1-2.2 1-1.5 0-2.1-1-0.7-1.1-0.7-3zm4.4 0q0-0.9-0.1-1.5-0.1-0.6-0.4-0.9-0.4-0.4-1.1-0.4-0.6 0-1 0.4-0.3 0.3-0.5 0.9-0.1 0.6-0.1 1.5 0 0.9 0.1 1.5 0.2 0.7 0.5 1 0.4 0.4 1 0.4 0.7 0 1.1-0.4 0.3-0.3 0.4-1 0.1-0.6 0.1-1.5zm2.5-1.9q0.1-1 0.8-1.5 0.7-0.6 1.8-0.6 0.7 0 1.3 0.3 0.5 0.3 0.8 0.7 0.3 0.5 0.3 1.1 0 0.6-0.4 1.1-0.3 0.5-0.8 0.6v0.1q0.6 0.2 1 0.7 0.3 0.5 0.3 1.3 0 0.6-0.3 1.1-0.2 0.5-0.8 0.8-0.6 0.3-1.4 0.3-1.1 0-1.9-0.6-0.7-0.6-0.8-1.7h1.2q0 0.5 0.4 0.9 0.4 0.4 1.1 0.4 0.7 0 1-0.4 0.4-0.4 0.4-0.9 0-0.8-0.5-1.1-0.5-0.3-1.5-0.3h-0.3v-1h0.3q0.9 0 1.4-0.3 0.4-0.3 0.4-0.9 0-0.5-0.3-0.8-0.3-0.3-1-0.3-0.6 0-0.9 0.3-0.3 0.3-0.4 0.7zm16.6-0.1q0.7 0 1.2 0.3 0.6 0.3 0.9 0.9 0.3 0.5 0.3 1.3v3.5h-1.2v-3.3q0-0.8-0.4-1.2-0.4-0.4-1.1-0.4-0.7 0-1.1 0.4-0.4 0.4-0.4 1.2v3.3h-1.2v-3.3q0-0.8-0.4-1.2-0.4-0.4-1.1-0.4-0.7 0-1.1 0.4-0.4 0.4-0.4 1.2v3.3h-1.2v-5.9h1.2v0.7q0.3-0.4 0.8-0.6 0.4-0.2 1-0.2 0.7 0 1.2 0.3 0.6 0.3 0.9 0.9 0.3-0.5 0.8-0.9 0.6-0.3 1.3-0.3zm4.6-0.7q-0.3 0-0.6-0.2-0.2-0.2-0.2-0.6 0-0.3 0.2-0.5 0.3-0.2 0.6-0.2 0.3 0 0.6 0.2 0.2 0.2 0.2 0.5 0 0.4-0.2 0.6-0.3 0.2-0.6 0.2zm0.6 0.8v5.9h-1.2v-5.9zm4.6-0.1q0.7 0 1.2 0.3 0.6 0.3 0.9 0.9 0.3 0.5 0.3 1.3v3.5h-1.2v-3.3q0-0.8-0.4-1.2-0.4-0.4-1.1-0.4-0.7 0-1.1 0.4-0.4 0.4-0.4 1.2v3.3h-1.2v-5.9h1.2v0.7q0.3-0.4 0.8-0.6 0.5-0.2 1-0.2z"/>
	<path id="Layer" class="s2" d="m201.6 70.3c0-0.5 0.4-0.9 0.9-0.9h9.4c0.5 0 0.9 0.4 0.9 0.9v9.4c0 0.5-0.4 0.9-0.9 0.9h-9.4c-0.5 0-0.9-0.4-0.9-0.9z"/>
	<path id="Layer" fill-rule="evenodd" class="s3" d="m218.8 80q-0.1 0-0.2-0.1-0.1-0.1-0.1-0.2v-8.8q0-0.2 0.1-0.3 0.1-0.1 0.2-0.1h0.7q0.2 0 0.3 0.1 0 0.1 0 0.3v7.9h4.5q0.2 0 0.3 0.1 0 0.1 0 0.2v0.6q0 0.1 0 0.2-0.1 0.1-0.3 0.1zm7.5 0q-0.2 0-0.3-0.1 0-0.1 0-0.2v-6.4q0-0.2 0-0.2 0.1-0.1 0.3-0.1h0.6q0.2 0 0.2 0.1 0.1 0 0.1 0.2v6.4q0 0.1-0.1 0.2 0 0.1-0.2 0.1zm-0.1-8.3q-0.1 0-0.2-0.1-0.1-0.1-0.1-0.2v-0.8q0-0.1 0.1-0.2 0.1-0.1 0.2-0.1h0.9q0.1 0 0.2 0.1 0.1 0.1 0.1 0.2v0.8q0 0.1-0.1 0.2-0.1 0.1-0.2 0.1zm5.9 11.3q-0.9 0-1.5-0.3-0.6-0.2-0.9-0.6-0.3-0.3-0.5-0.7-0.1-0.3-0.1-0.5-0.1-0.1 0-0.2 0.1-0.1 0.3-0.1h0.6q0.1 0 0.2 0 0.1 0.1 0.2 0.3 0 0.2 0.2 0.4 0.2 0.3 0.5 0.4 0.3 0.2 0.9 0.2 0.7 0 1.1-0.1 0.4-0.2 0.7-0.6 0.2-0.5 0.2-1.2v-0.9q-0.3 0.4-0.9 0.7-0.5 0.3-1.3 0.3-0.7 0-1.3-0.3-0.5-0.3-0.9-0.7-0.3-0.5-0.5-1.1-0.1-0.5-0.2-1.2 0-0.4 0-0.7 0.1-0.7 0.2-1.2 0.2-0.6 0.5-1.1 0.4-0.4 0.9-0.7 0.6-0.3 1.3-0.3 0.8 0 1.4 0.3 0.5 0.3 0.8 0.8v-0.6q0-0.1 0.1-0.2 0.1-0.1 0.2-0.1h0.7q0.1 0 0.2 0.1 0.1 0.1 0.1 0.2v6.6q0 0.9-0.3 1.6-0.3 0.7-1 1.1-0.7 0.4-1.9 0.4zm0-4q0.7 0 1.1-0.3 0.4-0.3 0.6-0.8 0.2-0.5 0.2-1 0-0.2 0-0.4 0-0.3 0-0.5 0-0.5-0.2-1-0.2-0.4-0.6-0.8-0.4-0.3-1.1-0.3-0.7 0-1.1 0.3-0.4 0.3-0.6 0.8-0.2 0.5-0.2 1.1 0 0.3 0 0.7 0 0.6 0.2 1.1 0.2 0.5 0.6 0.8 0.4 0.3 1.1 0.3zm5.5 1q-0.1 0-0.2-0.1-0.1-0.1-0.1-0.2v-9q0-0.1 0.1-0.2 0.1-0.1 0.2-0.1h0.7q0.1 0 0.2 0.1 0.1 0.1 0.1 0.2v3.2q0.4-0.5 0.9-0.8 0.5-0.3 1.3-0.3 0.9 0 1.5 0.4 0.6 0.4 1 1.1 0.3 0.7 0.3 1.6v3.8q0 0.1-0.1 0.2-0.1 0.1-0.2 0.1h-0.7q-0.1 0-0.2-0.1-0.1-0.1-0.1-0.2v-3.8q0-0.9-0.5-1.4-0.4-0.6-1.3-0.6-0.9 0-1.4 0.6-0.5 0.5-0.5 1.4v3.8q0 0.1-0.1 0.2-0.1 0.1-0.2 0.1zm10.6 0q-0.8 0-1.3-0.3-0.4-0.3-0.7-0.8-0.2-0.5-0.2-1.3v-3.5h-1q-0.2 0-0.3-0.1 0-0.1 0-0.3v-0.4q0-0.2 0-0.2 0.1-0.1 0.3-0.1h1v-2.3q0-0.1 0.1-0.2 0.1-0.1 0.2-0.1h0.7q0.1 0 0.2 0.1 0.1 0.1 0.1 0.2v2.3h1.7q0.1 0 0.2 0.1 0.1 0 0.1 0.2v0.4q0 0.2-0.1 0.3-0.1 0.1-0.2 0.1h-1.7v3.4q0 0.7 0.2 1 0.2 0.4 0.8 0.4h0.8q0.1 0 0.2 0.1 0.1 0.1 0.1 0.2v0.5q0 0.1-0.1 0.2-0.1 0.1-0.2 0.1z"/>
	<path id="Layer" class="s1" d="m201.6 106.3c0-0.5 0.4-0.9 0.9-0.9h9.4c0.5 0 0.9 0.4 0.9 0.9v9.4c0 0.5-0.4 0.9-0.9 0.9h-9.4c-0.5 0-0.9-0.4-0.9-0.9z"/>
	<path id="Layer" fill-rule="evenodd" class="s3" d="m218.8 116q-0.1 0-0.2-0.1-0.1-0.1-0.1-0.2v-8.8q0-0.2 0.1-0.3 0.1-0.1 0.2-0.1h0.7q0.2 0 0.2 0.1 0.1 0.1 0.1 0.2l2.9 5.4 2.9-5.4q0-0.1 0.1-0.2 0.1-0.1 0.2-0.1h0.7q0.1 0 0.2 0.1 0.1 0.1 0.1 0.3v8.8q0 0.1-0.1 0.2-0.1 0.1-0.2 0.1h-0.7q-0.1 0-0.2-0.1-0.1-0.1-0.1-0.2v-6.7l-2.3 4.4q0 0.2-0.1 0.3-0.1 0-0.3 0h-0.4q-0.2 0-0.3 0-0.1-0.1-0.2-0.3l-2.2-4.4v6.7q0 0.1-0.1 0.2-0.1 0.1-0.2 0.1zm13.1 0.1q-1 0-1.7-0.4-0.7-0.3-1.1-1-0.3-0.7-0.4-1.6 0-0.3 0-0.6 0-0.4 0-0.6 0.1-0.9 0.4-1.6 0.4-0.7 1.1-1.1 0.7-0.4 1.7-0.4 1 0 1.7 0.4 0.7 0.4 1.1 1.1 0.3 0.7 0.4 1.6 0 0.2 0 0.6 0 0.3 0 0.6-0.1 0.9-0.4 1.6-0.4 0.7-1.1 1-0.7 0.4-1.7 0.4zm0-1q0.8 0 1.3-0.5 0.5-0.6 0.6-1.6 0-0.2 0-0.5 0-0.3 0-0.5-0.1-1.1-0.6-1.6-0.5-0.5-1.3-0.5-0.8 0-1.3 0.5-0.5 0.5-0.6 1.6 0 0.2 0 0.5 0 0.3 0 0.5 0.1 1 0.6 1.6 0.5 0.5 1.3 0.5zm7.5 1q-0.8 0-1.3-0.2-0.6-0.3-0.9-0.7-0.4-0.5-0.5-1.1-0.2-0.6-0.2-1.2 0-0.2 0-0.4 0-0.2 0-0.4 0-0.7 0.2-1.2 0.1-0.6 0.5-1.1 0.3-0.4 0.9-0.7 0.5-0.3 1.3-0.3 0.7 0 1.3 0.3 0.5 0.3 0.8 0.7v-3.1q0-0.1 0.1-0.2 0.1-0.1 0.3-0.1h0.6q0.1 0 0.2 0.1 0.1 0.1 0.1 0.2v9q0 0.1-0.1 0.2-0.1 0.1-0.2 0.1h-0.6q-0.2 0-0.2-0.1-0.1-0.1-0.1-0.2v-0.6q-0.4 0.5-0.9 0.8-0.5 0.2-1.3 0.2zm0.2-1.1q0.7 0 1.1-0.3 0.4-0.3 0.6-0.8 0.2-0.4 0.2-0.9 0.1-0.3 0.1-0.6 0-0.3-0.1-0.5 0-0.5-0.2-0.9-0.2-0.5-0.6-0.8-0.4-0.3-1.1-0.3-0.7 0-1.1 0.3-0.4 0.3-0.5 0.8-0.2 0.5-0.2 1.1-0.1 0.4 0 0.8 0 0.5 0.2 1 0.1 0.5 0.5 0.8 0.4 0.3 1.1 0.3zm8 1.1q-1.4 0-2.2-0.8-0.8-0.9-0.9-2.4 0-0.1 0-0.4 0-0.3 0-0.5 0.1-0.9 0.4-1.6 0.4-0.8 1.1-1.2 0.7-0.4 1.6-0.4 1 0 1.7 0.5 0.7 0.4 1.1 1.2 0.4 0.8 0.4 1.9v0.2q0 0.1-0.1 0.2-0.1 0.1-0.2 0.1h-4.7q0 0 0 0.1 0 0 0 0 0 0.6 0.2 1.1 0.2 0.4 0.6 0.7 0.5 0.3 1 0.3 0.5 0 0.8-0.1 0.4-0.2 0.6-0.3 0.2-0.2 0.2-0.3 0.1-0.2 0.2-0.2 0.1-0.1 0.2-0.1h0.7q0.1 0 0.2 0.1 0.1 0.1 0.1 0.2 0 0.2-0.2 0.5-0.2 0.3-0.6 0.6-0.4 0.3-0.9 0.5-0.6 0.1-1.3 0.1zm-1.8-4.1h3.7v-0.1q0-0.6-0.2-1-0.3-0.5-0.7-0.8-0.4-0.3-1-0.3-0.6 0-1 0.3-0.4 0.3-0.6 0.8-0.2 0.4-0.2 1zm6.9 4.1q-0.1 0-0.2-0.1-0.1-0.1-0.1-0.3v-6.3q0-0.2 0.1-0.3 0.1-0.1 0.2-0.1h0.6q0.2 0 0.2 0.1 0.1 0.1 0.1 0.3v0.6q0.3-0.5 0.8-0.7 0.5-0.3 1.1-0.3h0.6q0.1 0 0.2 0.1 0.1 0.1 0.1 0.2v0.6q0 0.1-0.1 0.2-0.1 0.1-0.2 0.1h-0.9q-0.7 0-1.1 0.4-0.4 0.4-0.4 1.2v3.9q0 0.2-0.1 0.3-0.1 0.1-0.2 0.1zm6.6 0.1q-0.6 0-1.2-0.3-0.5-0.2-0.9-0.7-0.3-0.5-0.3-1 0-1 0.7-1.5 0.8-0.6 2-0.8l2-0.2v-0.4q0-0.7-0.4-1.1-0.3-0.3-1.2-0.3-0.6 0-1 0.2-0.3 0.3-0.5 0.6 0 0.3-0.2 0.3h-0.7q-0.1-0.1-0.2-0.1-0.1-0.1-0.1-0.2 0-0.2 0.2-0.5 0.2-0.3 0.5-0.6 0.3-0.3 0.8-0.5 0.5-0.2 1.2-0.2 0.9 0 1.4 0.2 0.6 0.2 0.9 0.6 0.3 0.3 0.4 0.8 0.2 0.4 0.2 0.9v4.3q0 0.2-0.1 0.3-0.1 0.1-0.2 0.1h-0.6q-0.2 0-0.3-0.1-0.1-0.1-0.1-0.3v-0.5q-0.1 0.2-0.4 0.5-0.3 0.2-0.8 0.3-0.4 0.2-1.1 0.2zm0.3-1q0.6 0 1-0.2 0.5-0.3 0.7-0.8 0.3-0.5 0.3-1.2v-0.4l-1.6 0.2q-0.9 0.1-1.4 0.5-0.5 0.3-0.5 0.8 0 0.3 0.2 0.6 0.3 0.2 0.6 0.4 0.4 0.1 0.7 0.1zm7.9 0.9q-0.7 0-1.2-0.3-0.5-0.3-0.7-0.8-0.2-0.6-0.2-1.3v-3.6h-1.1q-0.1 0-0.2-0.1-0.1-0.1-0.1-0.2v-0.5q0-0.1 0.1-0.2 0.1-0.1 0.2-0.1h1.1v-2.2q0-0.2 0.1-0.2 0-0.1 0.2-0.1h0.6q0.2 0 0.2 0.1 0.1 0 0.1 0.2v2.2h1.7q0.1 0 0.2 0.1 0.1 0.1 0.1 0.2v0.5q0 0.1-0.1 0.2-0.1 0.1-0.2 0.1h-1.7v3.5q0 0.6 0.2 1 0.3 0.4 0.8 0.4h0.8q0.2 0 0.3 0 0.1 0.1 0.1 0.3v0.4q0 0.2-0.1 0.3-0.1 0.1-0.3 0.1zm5.4 0.1q-1.4 0-2.2-0.9-0.9-0.8-0.9-2.3-0.1-0.2-0.1-0.5 0-0.2 0.1-0.4 0-1 0.4-1.7 0.4-0.7 1.1-1.1 0.7-0.4 1.6-0.4 1 0 1.7 0.4 0.7 0.5 1.1 1.3 0.3 0.8 0.3 1.8v0.3q0 0.1-0.1 0.2-0.1 0.1-0.2 0.1h-4.7q0 0 0 0 0 0.1 0 0.1 0.1 0.5 0.3 1 0.2 0.5 0.6 0.8 0.4 0.3 1 0.3 0.5 0 0.8-0.2 0.3-0.1 0.5-0.3 0.2-0.2 0.3-0.3 0.1-0.1 0.2-0.2 0 0 0.2 0h0.6q0.2 0 0.3 0.1 0 0 0 0.2 0 0.2-0.2 0.5-0.2 0.3-0.6 0.5-0.3 0.3-0.9 0.5-0.5 0.2-1.2 0.2zm-1.9-4.2h3.7q0-0.6-0.2-1.1-0.2-0.5-0.6-0.7-0.4-0.3-1-0.3-0.6 0-1 0.3-0.4 0.2-0.6 0.7-0.3 0.5-0.3 1.1z"/>
</svg>