<svg width="249" height="211" viewBox="0 0 249 211" fill="none" xmlns="http://www.w3.org/2000/svg">
<path d="M19.66 128.044H126.391C126.391 128.044 115.127 116.67 101.268 112.087C87.4088 107.504 84.3168 120.59 84.3168 120.59C84.3168 120.59 70.8443 99.2769 53.7829 96.5162C31.4208 92.9272 35.341 121.97 35.341 121.97C35.341 121.97 28.1079 117.995 22.0894 118.271C18.0587 118.437 15.5188 121.97 19.66 128.044Z" fill="url(#paint0_linear_427_7575)"/>
<path d="M235.941 163.105H227.824V171.222H235.941V163.105Z" fill="url(#paint1_linear_427_7575)"/>
<path d="M243.838 87.2397H239.145V91.933H243.838V87.2397Z" fill="url(#paint2_linear_427_7575)"/>
<path d="M25.4057 43.9514H21.375V47.9821H25.4057V43.9514Z" fill="url(#paint3_linear_427_7575)"/>
<path d="M142.518 95.9087H139.426V99.0007H142.518V95.9087Z" fill="url(#paint4_linear_427_7575)"/>
<path d="M139.369 99.0005H132.025V106.344H139.369V99.0005Z" fill="url(#paint5_linear_427_7575)"/>
<path d="M75.9847 169.455H67.9785V177.461H75.9847V169.455Z" fill="url(#paint6_linear_427_7575)"/>
<path d="M141.246 43.3989H133.24V51.4051H141.246V43.3989Z" fill="url(#paint7_linear_427_7575)"/>
<path d="M62.1239 0H58.1484V3.97548H62.1239V0Z" fill="url(#paint8_linear_427_7575)"/>
<path d="M61.3482 173.044H20.8203V206.836H61.3482V173.044Z" fill="url(#paint9_linear_427_7575)"/>
<path d="M121.588 144.664H86.8574V206.891H121.588V144.664Z" fill="url(#paint10_linear_427_7575)"/>
<path d="M161.949 206.836H127.219V176.247V116.228H161.949V170.173V206.836Z" fill="url(#paint11_linear_427_7575)"/>
<path style="mix-blend-mode:multiply" opacity="0.2" d="M32.25 196.621L44.4525 173.044H52.1826L46.9372 196.621H32.25Z" fill="url(#paint12_linear_427_7575)"/>
<path style="mix-blend-mode:multiply" opacity="0.2" d="M89.7832 167.634L101.931 144.664H117.28L111.98 167.634H89.7832Z" fill="url(#paint13_linear_427_7575)"/>
<path d="M214.295 88.2344H179.564V206.836H214.295V88.2344Z" fill="url(#paint14_linear_427_7575)"/>
<g style="mix-blend-mode:screen">
<path d="M214.353 97.6758V98.7249C207.948 99.3875 206.789 104.854 203.862 109.547C202.151 112.197 200.053 114.185 197.457 115.179C192.046 117.222 184.482 115.952 179.623 117.498V109.05C184.979 108.167 190.887 111.259 196.077 109.713C203.31 106.897 205.74 97.0132 214.409 97.731L214.353 97.6758Z" fill="url(#paint15_linear_427_7575)"/>
<path d="M214.353 134.504V142.4C199.445 141.903 202.537 119.264 179.623 127.602V124.731C198.838 120.037 201.764 135.001 214.353 134.559V134.504Z" fill="url(#paint16_linear_427_7575)"/>
<path d="M214.353 147.701V156.48C190.556 155.541 193.372 168.627 179.623 167.523V163.824C184.095 163.989 189.893 162.167 193.648 159.517C200.384 154.713 205.298 148.75 214.353 147.646V147.701Z" fill="url(#paint17_linear_427_7575)"/>
<path d="M211.922 192.59C208.499 204.958 189.284 199.437 179.622 200.154V193.529C186.855 192.038 194.64 198.94 201.542 196.234C207.505 194.302 208.499 182.154 202.425 180.387C195.413 177.958 183.708 184.639 179.566 187.345V181.989C188.125 177.075 207.726 174.866 211.702 186.351C212.419 188.338 212.419 190.547 211.867 192.59H211.922Z" fill="url(#paint18_linear_427_7575)"/>
</g>
<path d="M198.119 35.9451L201.652 43.0678C201.818 43.4544 202.204 43.7304 202.646 43.7856L210.487 44.9452C211.536 45.1108 211.978 46.436 211.205 47.1538L205.517 52.6753C205.186 52.9513 205.076 53.3931 205.131 53.8348L206.456 61.6753C206.622 62.7244 205.517 63.5526 204.579 63.0557L197.566 59.3563C197.18 59.1354 196.738 59.1354 196.352 59.3563L189.339 63.0557C188.401 63.5526 187.241 62.7244 187.462 61.6753L188.787 53.8348C188.842 53.3931 188.732 52.9513 188.401 52.6753L182.714 47.1538C181.941 46.3807 182.382 45.0556 183.431 44.9452L191.272 43.7856C191.714 43.7304 192.045 43.4544 192.266 43.0678L195.8 35.9451C196.296 34.9512 197.677 34.9512 198.174 35.9451H198.119Z" fill="url(#paint19_linear_427_7575)"/>
<path d="M196.959 36.3311C197.069 36.3311 197.125 36.3311 197.125 36.4415L200.658 43.5643C200.99 44.2821 201.708 44.779 202.481 44.8894L210.321 46.049C210.432 46.049 210.487 46.1042 210.487 46.2146C210.487 46.2698 210.487 46.3802 210.487 46.4355L204.8 51.957C204.247 52.5091 203.971 53.3373 204.082 54.1103L205.407 61.9509C205.407 61.9509 205.407 62.0613 205.407 62.1165C205.407 62.1165 205.297 62.1717 205.241 62.1717C205.186 62.1717 205.186 62.1717 205.131 62.1717L198.119 58.4723C197.787 58.3067 197.401 58.1963 197.014 58.1963C196.628 58.1963 196.241 58.3067 195.91 58.4723L188.898 62.1717C188.898 62.1717 188.842 62.1717 188.787 62.1717C188.732 62.1717 188.677 62.1717 188.622 62.1165C188.622 62.0613 188.622 62.0061 188.622 61.9509L189.947 54.1103C190.057 53.3373 189.836 52.5091 189.229 51.957L183.542 46.4355C183.487 46.3802 183.487 46.325 183.542 46.2146C183.542 46.1594 183.597 46.1042 183.707 46.049L191.548 44.8894C192.321 44.779 193.039 44.2821 193.37 43.5643L196.904 36.4415C196.904 36.3863 197.014 36.3311 197.069 36.3311M196.959 35.2268C196.517 35.2268 196.02 35.4477 195.8 35.9446L192.266 43.0673C192.1 43.4538 191.714 43.7299 191.272 43.7851L183.431 44.9446C182.382 45.1103 181.941 46.4355 182.714 47.1533L188.401 52.6748C188.732 52.9508 188.842 53.3926 188.787 53.8343L187.462 61.6748C187.296 62.503 188.014 63.2208 188.732 63.2208C189.45 63.2208 189.119 63.2208 189.339 63.0552L196.352 59.3558C196.517 59.2453 196.738 59.1901 196.959 59.1901C197.18 59.1901 197.401 59.1901 197.566 59.3558L204.579 63.0552C204.8 63.1656 204.965 63.2208 205.186 63.2208C205.959 63.2208 206.622 62.5583 206.456 61.6748L205.131 53.8343C205.076 53.3926 205.186 52.9508 205.517 52.6748L211.205 47.1533C211.978 46.3802 211.536 45.0551 210.487 44.9446L202.646 43.7851C202.204 43.7299 201.873 43.4538 201.652 43.0673L198.119 35.9446C197.898 35.4477 197.401 35.2268 196.959 35.2268Z" fill="url(#paint20_linear_427_7575)"/>
<path style="mix-blend-mode:screen" opacity="0.5" d="M204.577 63.0002L199.221 60.1843L183.816 44.7793L190.774 43.7854L206.013 59.0247L206.455 61.6199C206.62 62.6689 205.516 63.4972 204.577 63.0002Z" fill="url(#paint21_linear_427_7575)"/>
<path style="mix-blend-mode:screen" opacity="0.5" d="M205.515 52.6752C205.184 52.9513 205.073 53.393 205.129 53.8347L205.405 55.4912L192.484 42.5709L194.03 39.3684L206.399 51.7366L205.46 52.62L205.515 52.6752Z" fill="url(#paint22_linear_427_7575)"/>
<path d="M212.75 70.1233H180.891V71.7245H212.75V70.1233Z" fill="url(#paint23_linear_427_7575)"/>
<path d="M212.75 81.6631H180.891V83.2643H212.75V81.6631Z" fill="url(#paint24_linear_427_7575)"/>
<path d="M214.351 71.7241H212.75V81.6628H214.351V71.7241Z" fill="url(#paint25_linear_427_7575)"/>
<path d="M180.945 71.7241H179.344V81.6628H180.945V71.7241Z" fill="url(#paint26_linear_427_7575)"/>
<path d="M85.3659 45.608C85.3107 47.0436 85.3107 48.5344 85.3659 49.7492C85.4211 51.4608 85.5315 52.6756 85.5315 52.6756C80.01 52.6756 76.918 49.5283 76.918 49.5283C78.0223 47.4853 78.9609 40.9148 78.9609 40.9148C79.237 39.2031 86.0285 40.197 85.5315 43.8411C85.4763 44.3933 85.4211 45.0007 85.3659 45.608Z" fill="#F39C94"/>
<g style="mix-blend-mode:multiply">
<path d="M85.3674 49.749C81.1159 48.479 80.2324 45.387 80.2324 45.387C80.2324 45.387 83.1036 45.4974 85.3674 45.6078C85.3122 47.0434 85.3122 48.5342 85.3674 49.749Z" fill="#F39C94"/>
</g>
<path d="M94.1453 40.804C93.7588 39.7549 92.4889 38.0433 92.4889 38.0433C91.7159 34.7303 90.3355 31.4727 89.3416 29.761C85.8631 23.9634 72.1698 33.0739 77.0839 40.6936C78.9612 43.5648 81.3907 49.6936 89.5073 48.2028C92.3233 47.7059 93.2067 45.1108 93.0963 42.0187C93.7588 41.7427 94.3662 41.3009 94.2006 40.7488L94.1453 40.804Z" fill="#F39C94"/>
<path d="M71.1217 34.013C69.6861 32.1356 66.5941 28.7675 61.7904 30.4792C55.9376 32.5774 59.3057 41.8535 55.2198 43.013C52.0725 43.8964 53.1768 46.4363 57.9805 45.1664C66.1523 43.013 63.7781 38.1541 68.8579 37.4363C71.7843 36.9946 71.7843 34.786 71.1769 34.013H71.1217Z" fill="url(#paint27_linear_427_7575)"/>
<path d="M71.0116 31.0864C71.0116 31.0864 68.3613 31.4729 67.9748 35.1171C67.5883 38.7613 70.1834 39.5895 70.1834 39.5895L71.0116 31.1416V31.0864Z" fill="#5869F1"/>
<path d="M84.7615 27.1105C87.9639 27.6074 88.737 36.1105 82.4424 37.767C80.013 38.4296 78.0252 36.5523 77.197 38.7057C76.5344 40.3621 79.0191 43.3437 79.0191 43.3437C79.0191 43.3437 77.9148 46.2701 74.3258 45.9388C70.7369 45.6627 69.1356 42.902 69.1908 38.5952C69.1908 34.2884 69.5221 30.5338 73.9945 28.1044C78.467 25.6749 83.7124 26.9448 84.7615 27.1105Z" fill="url(#paint28_linear_427_7575)"/>
<path d="M85.1451 28.8224C85.0899 27.8286 85.9181 26.1721 88.6237 26.669C92.1574 27.3316 92.6544 32.1353 90.501 34.3991C90.501 34.3991 90.1697 33.7366 89.5623 33.2948C88.1267 32.301 85.3108 31.1967 85.1451 28.8224Z" fill="url(#paint29_linear_427_7575)"/>
<path d="M111.648 71.2275C111.648 71.2275 114.298 69.6263 115.403 69.295C116.507 68.9637 117.611 69.1846 118.55 68.8533C119.489 68.522 120.096 67.3625 121.642 67.0312C123.188 66.6999 122.525 65.5404 121.421 65.43C120.262 65.2643 118.053 66.3686 118.439 65.3747C118.439 65.3747 119.875 63.9944 120.372 63.1109C121.752 63.1662 123.409 63.0005 123.906 62.8349C124.679 62.5588 125.065 61.841 124.403 61.6753C123.078 61.3441 120.593 61.0128 119.709 61.2336C118.329 61.6201 115.623 64.3809 114.354 65.3747C113.084 66.3686 108.832 68.1907 108.832 68.1907L111.648 71.2275Z" fill="#F39C94"/>
<path d="M79.9548 60.6817C79.4579 66.8658 85.0346 78.1849 90.0591 80.5039C95.9119 83.2094 114.575 69.6266 114.575 69.6266L112.973 65.9824C112.973 65.9824 98.8383 69.24 95.9119 71.3934C95.1941 68.6879 94.5868 63.0007 90.28 58.197C87.0775 54.5528 80.2861 55.9332 79.9548 60.6817Z" fill="url(#paint30_linear_427_7575)"/>
<path d="M76.9186 49.5281C76.9186 49.5281 74.434 49.5833 71.9493 54.7183C69.4646 59.8533 70.6241 66.4239 68.3051 73.8227C65.9861 81.2215 63.9983 81.332 63.3358 84.0927C63.0597 85.197 64.6057 88.3995 64.6057 88.3995L81.2806 93.8658C81.2806 93.8658 82.1641 91.8228 82.9371 90.3872C85.4218 88.786 90.612 79.3442 91.8819 71.6693C93.5936 61.5098 91.1089 56.3748 85.5322 52.6202C85.5322 52.6202 79.1825 51.295 76.9186 49.4729V49.5281Z" fill="url(#paint31_linear_427_7575)"/>
<g style="mix-blend-mode:multiply" opacity="0.5">
<path d="M78.1899 62.0615C78.1899 62.0615 74.7665 66.8652 69.3555 69.4051C69.7972 66.9204 69.9628 64.6014 70.1837 62.3928L78.1899 62.0615Z" fill="url(#paint32_linear_427_7575)"/>
</g>
<path d="M49.6977 84.8654C49.6977 84.8654 47.8756 88.1231 46.9369 89.1722C45.9983 90.2765 43.5136 93.1477 41.5259 94.1968C41.305 94.3072 40.7529 94.4728 40.3664 94.5281C39.4277 94.6937 38.1025 94.6937 37.9921 94.5281C37.5504 93.7551 39.3173 93.6446 39.8142 93.3133C40.1455 93.0373 40.4768 92.7612 40.8081 92.3747C40.0903 92.6508 39.6486 92.5403 39.3725 92.3195C39.2068 92.1538 39.1516 91.933 39.2068 91.7673C39.4277 91.2152 40.3111 90.8287 40.6976 90.4974C41.0841 90.1109 41.8019 89.2826 41.8019 89.2826L41.9124 89.0618C42.7406 87.571 43.9001 87.6262 44.0658 87.4053C44.2314 87.1845 45.3909 84.5894 45.3909 84.5894L49.6977 84.9206V84.8654Z" fill="#F39C94"/>
<g style="mix-blend-mode:multiply">
<path d="M41.8577 89.7246C41.8577 89.7246 41.8577 90.1663 41.5816 90.7185C41.1951 91.7124 40.8086 92.3197 40.8086 92.3197C40.0908 92.5958 39.6491 92.4854 39.373 92.2645C40.9191 92.4854 41.8577 89.7246 41.8577 89.7246Z" fill="#F39C94"/>
</g>
<path d="M74.9326 51.9578C68.8037 51.9578 59.638 57.0928 56.049 63.2768C50.3619 67.8597 44.7852 85.6389 44.7852 85.6389L48.6502 87.8475C48.6502 87.8475 62.2331 73.2708 61.7914 68.9088C64.3865 67.9701 73.7178 66.7002 78.1903 62.0621C81.5584 58.5836 79.6811 51.9578 74.9326 51.9578Z" fill="url(#paint33_linear_427_7575)"/>
<path d="M44.0104 151.896L41.084 161.338L45.8325 162.939L49.9184 154.989" fill="#F39C94"/>
<path d="M77.8582 101.209C77.8582 101.209 77.3061 103.418 76.3674 106.675C75.6496 109.271 74.711 112.528 73.6619 115.841C71.8398 121.639 69.7968 127.547 68.1404 130.307C66.2078 133.455 47.5452 160.068 47.5452 160.068L42.4102 155.32C42.4102 155.32 48.3182 128.541 57.9256 126.056C56.6004 109.05 61.0728 94.8042 61.0728 94.8042L77.803 101.209H77.8582Z" fill="url(#paint34_linear_427_7575)"/>
<path style="mix-blend-mode:multiply" d="M76.368 106.676C75.6502 109.271 74.7115 112.529 73.6625 115.841C63.6685 113.246 60.1348 106.621 60.1348 106.621L61.7912 103.915C61.7912 103.915 70.8465 105.682 71.3434 105.682C71.8404 105.682 73.9385 106.179 76.368 106.676Z" fill="url(#paint35_linear_427_7575)"/>
<path d="M101.158 134.228L102.263 138.258L107.508 138.038L106.901 133.289" fill="#F39C94"/>
<path d="M64.6053 88.4546C64.6053 88.4546 54.9979 92.927 58.6973 104.246C61.955 114.24 91.3846 110.375 91.3846 110.375C91.3846 110.375 91.7159 114.516 92.8754 118.602C94.2006 123.24 101.047 135.332 101.047 135.332L108.17 135.829C108.17 135.829 104.581 109.712 102.704 104.08C100.826 98.4485 81.2802 93.9209 81.2802 93.9209L64.6053 88.4546Z" fill="url(#paint36_linear_427_7575)"/>
<g style="mix-blend-mode:multiply">
<path d="M78.6841 38.5402C78.2976 38.5402 77.8007 39.0371 77.9664 40.031C78.1872 41.3561 79.8437 41.4666 80.5615 40.804C80.8928 40.4727 80.7271 40.1414 80.451 40.031C80.2302 39.9206 79.7884 39.9758 79.5124 39.8101C78.9602 39.4236 79.3467 38.485 78.6841 38.5402Z" fill="#F39C94"/>
</g>
<path d="M102.263 138.258C102.263 138.258 100.938 139.915 100.607 141.24C100.276 142.565 101.987 144.608 101.987 144.608H117.337C117.337 144.608 117.779 142.952 116.619 141.682C116.233 141.295 114.687 140.467 112.754 140.578C109.994 139.252 107.564 137.982 107.564 137.982L102.319 138.203L102.263 138.258Z" fill="url(#paint37_linear_427_7575)"/>
<path d="M41.0843 161.338L45.8328 162.94L47.6549 169.565C47.6549 169.565 50.1396 169.345 51.3543 170.062C52.5138 170.78 52.2378 173.099 52.2378 173.099H44.4525L37.1641 166.529C37.1641 166.529 37.2193 164.375 38.1027 162.995C38.5997 162.167 40.0905 161.559 41.0843 161.394V161.338Z" fill="url(#paint38_linear_427_7575)"/>
<path d="M90.5557 37.4912C90.6661 37.8777 90.5557 38.2642 90.3348 38.3194C90.1139 38.3747 89.7827 38.1538 89.6722 37.7673C89.5618 37.3808 89.6722 36.9943 89.8931 36.9391C90.1139 36.8838 90.4452 37.1047 90.5557 37.4912Z" fill="url(#paint39_linear_427_7575)"/>
<path d="M90.5016 36.0001C90.3359 35.8897 90.0598 35.7792 89.839 35.7792C89.6181 35.7792 89.3421 35.8897 89.1212 36.0001C88.6243 36.2762 88.2377 36.7731 87.9617 37.3253C87.9617 37.3805 87.8512 37.3805 87.796 37.3253C87.796 37.3253 87.7408 37.27 87.796 37.2148C87.9617 36.6075 88.3482 36.0001 88.9003 35.5584C89.1764 35.3375 89.5077 35.1719 89.9494 35.1719C90.3359 35.1719 90.7224 35.3375 90.9985 35.6136C91.1089 35.724 91.1089 35.8897 90.9985 36.0001C90.8881 36.1105 90.7224 36.1105 90.612 36.0001H90.5016Z" fill="url(#paint40_linear_427_7575)"/>
<path d="M92.047 43.0125L89.1758 43.2333C89.1758 43.2333 89.8384 44.5585 91.2187 44.5585C92.5991 44.5585 92.047 43.0125 92.047 43.0125Z" fill="white"/>
<path d="M153.504 84.9209C150.467 84.9209 147.982 87.4056 147.982 90.4424C147.982 87.4056 145.498 84.9209 142.461 84.9209C145.498 84.9209 147.982 82.4362 147.982 79.3994C147.982 82.4362 150.467 84.9209 153.504 84.9209Z" fill="url(#paint41_linear_427_7575)"/>
<path d="M248.086 33.6266C242.289 33.6266 237.54 38.3199 237.54 44.1727C237.54 38.3751 232.847 33.6266 226.994 33.6266C232.792 33.6266 237.54 28.9334 237.54 23.0806C237.54 28.8781 242.233 33.6266 248.086 33.6266Z" fill="url(#paint42_linear_427_7575)"/>
<path d="M226.553 118.326C221.805 118.326 217.94 122.191 217.94 126.94C217.94 122.191 214.075 118.326 209.326 118.326C214.075 118.326 217.94 114.461 217.94 109.713C217.94 114.461 221.805 118.326 226.553 118.326Z" fill="url(#paint43_linear_427_7575)"/>
<path d="M11.6558 58.5281C9.1711 58.5281 7.18336 60.5158 7.18336 63.0005C7.18336 60.5158 5.19561 58.5281 2.71094 58.5281C5.19561 58.5281 7.18336 56.5403 7.18336 54.0557C7.18336 56.5403 9.1711 58.5281 11.6558 58.5281Z" fill="url(#paint44_linear_427_7575)"/>
<path d="M131.748 21.3134C129.153 21.3134 127.055 23.4116 127.055 26.0067C127.055 23.4116 124.956 21.3134 122.361 21.3134C124.956 21.3134 127.055 19.2152 127.055 16.6201C127.055 19.2152 129.153 21.3134 131.748 21.3134Z" fill="url(#paint45_linear_427_7575)"/>
<path d="M29.9891 138.259C28.167 138.259 26.6762 139.75 26.6762 141.572C26.6762 139.75 25.1854 138.259 23.3633 138.259C25.1854 138.259 26.6762 136.768 26.6762 134.946C26.6762 136.768 28.167 138.259 29.9891 138.259Z" fill="url(#paint46_linear_427_7575)"/>
<path d="M1 206.946H241.517" stroke="#282734" stroke-width="0.514" stroke-linecap="round" stroke-linejoin="round"/>
<path d="M70.6797 210.48H138.815" stroke="#282734" stroke-width="0.514" stroke-linecap="round" stroke-linejoin="round"/>
<path d="M29.9863 210.48H52.1828" stroke="#282734" stroke-width="0.514" stroke-linecap="round" stroke-linejoin="round"/>
<defs>
<linearGradient id="paint0_linear_427_7575" x1="72.0038" y1="138.369" x2="72.0038" y2="107.67" gradientUnits="userSpaceOnUse">
<stop stop-color="white"/>
<stop offset="1" stop-color="#E6F4FF"/>
</linearGradient>
<linearGradient id="paint1_linear_427_7575" x1="239.64" y1="174.921" x2="232.021" y2="167.301" gradientUnits="userSpaceOnUse">
<stop stop-color="white"/>
<stop offset="1" stop-color="#E6F4FF"/>
</linearGradient>
<linearGradient id="paint2_linear_427_7575" x1="246.046" y1="94.0864" x2="241.574" y2="89.6692" gradientUnits="userSpaceOnUse">
<stop stop-color="white"/>
<stop offset="1" stop-color="#E6F4FF"/>
</linearGradient>
<linearGradient id="paint3_linear_427_7575" x1="27.283" y1="49.8594" x2="23.4732" y2="46.0496" gradientUnits="userSpaceOnUse">
<stop stop-color="white"/>
<stop offset="1" stop-color="#E6F4FF"/>
</linearGradient>
<linearGradient id="paint4_linear_427_7575" x1="143.898" y1="100.381" x2="141.027" y2="97.5099" gradientUnits="userSpaceOnUse">
<stop stop-color="white"/>
<stop offset="1" stop-color="#E6F4FF"/>
</linearGradient>
<linearGradient id="paint5_linear_427_7575" x1="142.792" y1="109.712" x2="135.835" y2="102.81" gradientUnits="userSpaceOnUse">
<stop stop-color="white"/>
<stop offset="1" stop-color="#E6F4FF"/>
</linearGradient>
<linearGradient id="paint6_linear_427_7575" x1="79.6841" y1="181.105" x2="72.1196" y2="173.541" gradientUnits="userSpaceOnUse">
<stop stop-color="white"/>
<stop offset="1" stop-color="#E6F4FF"/>
</linearGradient>
<linearGradient id="paint7_linear_427_7575" x1="144.946" y1="55.1045" x2="137.381" y2="47.5401" gradientUnits="userSpaceOnUse">
<stop stop-color="white"/>
<stop offset="1" stop-color="#E6F4FF"/>
</linearGradient>
<linearGradient id="paint8_linear_427_7575" x1="63.946" y1="5.79758" x2="60.1914" y2="2.04296" gradientUnits="userSpaceOnUse">
<stop stop-color="white"/>
<stop offset="1" stop-color="#E6F4FF"/>
</linearGradient>
<linearGradient id="paint9_linear_427_7575" x1="40.4217" y1="203.523" x2="42.0229" y2="171.388" gradientUnits="userSpaceOnUse">
<stop stop-color="#4CCEC1"/>
<stop offset="1" stop-color="#93FFE2"/>
</linearGradient>
<linearGradient id="paint10_linear_427_7575" x1="104.25" y1="207.278" x2="104.25" y2="147.756" gradientUnits="userSpaceOnUse">
<stop stop-color="#4CCEC1"/>
<stop offset="1" stop-color="#93FFE2"/>
</linearGradient>
<linearGradient id="paint11_linear_427_7575" x1="144.556" y1="206.008" x2="144.556" y2="117.498" gradientUnits="userSpaceOnUse">
<stop stop-color="#4CCEC1"/>
<stop offset="1" stop-color="#93FFE2"/>
</linearGradient>
<linearGradient id="paint12_linear_427_7575" x1="42.2439" y1="172.547" x2="42.2439" y2="193.143" gradientUnits="userSpaceOnUse">
<stop stop-color="#A939F8"/>
<stop offset="1" stop-color="#E559FF" stop-opacity="0"/>
</linearGradient>
<linearGradient id="paint13_linear_427_7575" x1="103.532" y1="144.112" x2="103.532" y2="164.21" gradientUnits="userSpaceOnUse">
<stop stop-color="#A939F8"/>
<stop offset="1" stop-color="#E559FF" stop-opacity="0"/>
</linearGradient>
<linearGradient id="paint14_linear_427_7575" x1="188.233" y1="79.6785" x2="254.686" y2="192.976" gradientUnits="userSpaceOnUse">
<stop stop-color="#FF9277"/>
<stop offset="1" stop-color="#E53E14"/>
</linearGradient>
<linearGradient id="paint15_linear_427_7575" x1="188.305" y1="96.2458" x2="190.772" y2="121.454" gradientUnits="userSpaceOnUse">
<stop stop-color="#FF9277"/>
<stop offset="1" stop-color="#E53E14"/>
</linearGradient>
<linearGradient id="paint16_linear_427_7575" x1="188.291" y1="122.478" x2="190.465" y2="146.135" gradientUnits="userSpaceOnUse">
<stop stop-color="#FF9277"/>
<stop offset="1" stop-color="#E53E14"/>
</linearGradient>
<linearGradient id="paint17_linear_427_7575" x1="188.291" y1="146.207" x2="190.792" y2="171.566" gradientUnits="userSpaceOnUse">
<stop stop-color="#FF9277"/>
<stop offset="1" stop-color="#E53E14"/>
</linearGradient>
<linearGradient id="paint18_linear_427_7575" x1="187.727" y1="176.35" x2="191.179" y2="205.189" gradientUnits="userSpaceOnUse">
<stop stop-color="#FF9277"/>
<stop offset="1" stop-color="#E53E14"/>
</linearGradient>
<linearGradient id="paint19_linear_427_7575" x1="205.573" y1="60.0741" x2="188.898" y2="43.3991" gradientUnits="userSpaceOnUse">
<stop stop-color="#FF9C00"/>
<stop offset="1" stop-color="#FFCA00"/>
</linearGradient>
<linearGradient id="paint20_linear_427_7575" x1="182.327" y1="49.1962" x2="211.591" y2="49.1962" gradientUnits="userSpaceOnUse">
<stop stop-color="#FFCA00" stop-opacity="0"/>
<stop offset="1" stop-color="#FFFF8B"/>
</linearGradient>
<linearGradient id="paint21_linear_427_7575" x1="216.559" y1="73.5463" x2="188.068" y2="45.0554" gradientUnits="userSpaceOnUse">
<stop stop-color="#89DFD6"/>
<stop offset="1" stop-color="white" stop-opacity="0.5"/>
</linearGradient>
<linearGradient id="paint22_linear_427_7575" x1="213.853" y1="61.5649" x2="194.417" y2="42.0739" gradientUnits="userSpaceOnUse">
<stop stop-color="#89DFD6"/>
<stop offset="1" stop-color="white" stop-opacity="0.5"/>
</linearGradient>
<linearGradient id="paint23_linear_427_7575" x1="215.455" y1="77.5221" x2="180.835" y2="65.2643" gradientUnits="userSpaceOnUse">
<stop stop-color="#FF9C00"/>
<stop offset="1" stop-color="#FFCA00"/>
</linearGradient>
<linearGradient id="paint24_linear_427_7575" x1="211.811" y1="87.792" x2="177.191" y2="75.5343" gradientUnits="userSpaceOnUse">
<stop stop-color="#FF9C00"/>
<stop offset="1" stop-color="#FFCA00"/>
</linearGradient>
<linearGradient id="paint25_linear_427_7575" x1="215.511" y1="77.3561" x2="180.891" y2="65.1536" gradientUnits="userSpaceOnUse">
<stop stop-color="#FF9C00"/>
<stop offset="1" stop-color="#FFCA00"/>
</linearGradient>
<linearGradient id="paint26_linear_427_7575" x1="211.755" y1="87.9021" x2="177.135" y2="75.6444" gradientUnits="userSpaceOnUse">
<stop stop-color="#FF9C00"/>
<stop offset="1" stop-color="#FFCA00"/>
</linearGradient>
<linearGradient id="paint27_linear_427_7575" x1="53.4529" y1="37.7676" x2="71.453" y2="37.7676" gradientUnits="userSpaceOnUse">
<stop stop-color="#2D2F7B"/>
<stop offset="1" stop-color="#16203C"/>
</linearGradient>
<linearGradient id="paint28_linear_427_7575" x1="74.878" y1="29.2639" x2="81.3934" y2="41.8529" gradientUnits="userSpaceOnUse">
<stop stop-color="#2D2F7B"/>
<stop offset="1" stop-color="#16203C"/>
</linearGradient>
<linearGradient id="paint29_linear_427_7575" x1="85.4764" y1="23.7426" x2="92.047" y2="36.3869" gradientUnits="userSpaceOnUse">
<stop stop-color="#2D2F7B"/>
<stop offset="1" stop-color="#16203C"/>
</linearGradient>
<linearGradient id="paint30_linear_427_7575" x1="107.35" y1="73.5387" x2="79.7599" y2="59.572" gradientUnits="userSpaceOnUse">
<stop stop-color="#FF9277"/>
<stop offset="1" stop-color="#E53E14"/>
</linearGradient>
<linearGradient id="paint31_linear_427_7575" x1="70.5689" y1="46.2704" x2="84.5383" y2="99.6082" gradientUnits="userSpaceOnUse">
<stop stop-color="#FF9277"/>
<stop offset="1" stop-color="#E53E14"/>
</linearGradient>
<linearGradient id="paint32_linear_427_7575" x1="71.5604" y1="61.5318" x2="72.8797" y2="70.7719" gradientUnits="userSpaceOnUse">
<stop stop-color="#FF9277"/>
<stop offset="1" stop-color="#E53E14"/>
</linearGradient>
<linearGradient id="paint33_linear_427_7575" x1="53.5497" y1="49.3687" x2="61.3967" y2="94.0704" gradientUnits="userSpaceOnUse">
<stop stop-color="#FF9277"/>
<stop offset="1" stop-color="#E53E14"/>
</linearGradient>
<linearGradient id="paint34_linear_427_7575" x1="57.5391" y1="77.4115" x2="62.5084" y2="173.872" gradientUnits="userSpaceOnUse">
<stop stop-color="#2F3872"/>
<stop offset="1" stop-color="#1C134B"/>
</linearGradient>
<linearGradient id="paint35_linear_427_7575" x1="67.9201" y1="99.8291" x2="69.2452" y2="125.449" gradientUnits="userSpaceOnUse">
<stop stop-color="#2F3872"/>
<stop offset="1" stop-color="#1C134B"/>
</linearGradient>
<linearGradient id="paint36_linear_427_7575" x1="80.6729" y1="72.6079" x2="85.8631" y2="174.259" gradientUnits="userSpaceOnUse">
<stop stop-color="#2F3872"/>
<stop offset="1" stop-color="#1C134B"/>
</linearGradient>
<linearGradient id="paint37_linear_427_7575" x1="108.227" y1="136.602" x2="109.11" y2="144.111" gradientUnits="userSpaceOnUse">
<stop stop-color="#2F3872"/>
<stop offset="1" stop-color="#1C134B"/>
</linearGradient>
<linearGradient id="paint38_linear_427_7575" x1="41.8573" y1="160.786" x2="45.8328" y2="172.381" gradientUnits="userSpaceOnUse">
<stop stop-color="#2F3872"/>
<stop offset="1" stop-color="#1C134B"/>
</linearGradient>
<linearGradient id="paint39_linear_427_7575" x1="88.9544" y1="36.9943" x2="92.6538" y2="38.982" gradientUnits="userSpaceOnUse">
<stop stop-color="#2D2F7B"/>
<stop offset="1" stop-color="#16203C"/>
</linearGradient>
<linearGradient id="paint40_linear_427_7575" x1="88.2377" y1="35.8897" x2="90.3359" y2="36.994" gradientUnits="userSpaceOnUse">
<stop stop-color="#2D2F7B"/>
<stop offset="1" stop-color="#16203C"/>
</linearGradient>
<linearGradient id="paint41_linear_427_7575" x1="142.516" y1="84.9209" x2="153.504" y2="84.9209" gradientUnits="userSpaceOnUse">
<stop stop-color="#FF9C00"/>
<stop offset="1" stop-color="#FFCA00"/>
</linearGradient>
<linearGradient id="paint42_linear_427_7575" x1="242.896" y1="38.5408" x2="232.129" y2="28.6021" gradientUnits="userSpaceOnUse">
<stop stop-color="#FF9C00"/>
<stop offset="1" stop-color="#FFCA00"/>
</linearGradient>
<linearGradient id="paint43_linear_427_7575" x1="209.326" y1="118.326" x2="226.553" y2="118.326" gradientUnits="userSpaceOnUse">
<stop stop-color="#FF9C00"/>
<stop offset="1" stop-color="#FFCA00"/>
</linearGradient>
<linearGradient id="paint44_linear_427_7575" x1="11.8214" y1="63.1109" x2="5.47169" y2="56.8164" gradientUnits="userSpaceOnUse">
<stop stop-color="#FF9C00"/>
<stop offset="1" stop-color="#FFCA00"/>
</linearGradient>
<linearGradient id="paint45_linear_427_7575" x1="131.858" y1="26.1171" x2="125.233" y2="19.4913" gradientUnits="userSpaceOnUse">
<stop stop-color="#FF9C00"/>
<stop offset="1" stop-color="#FFCA00"/>
</linearGradient>
<linearGradient id="paint46_linear_427_7575" x1="30.0995" y1="141.627" x2="25.4062" y2="136.989" gradientUnits="userSpaceOnUse">
<stop stop-color="#FF9C00"/>
<stop offset="1" stop-color="#FFCA00"/>
</linearGradient>
</defs>
</svg>
