<svg width="14" height="14" viewBox="0 0 14 14" fill="none" xmlns="http://www.w3.org/2000/svg">
<g clip-path="url(#clip0_796_2076)">
<path d="M7 0C3.14018 0 0 3.14018 0 7C0 10.8598 3.14018 14 7 14C10.8598 14 14 10.8598 14 7C14 3.14018 10.8598 0 7 0ZM7 12.9126C3.73977 12.9126 1.08738 10.2602 1.08738 7C1.08738 3.73977 3.73977 1.08738 7 1.08738C10.2602 1.08738 12.9126 3.73977 12.9126 7C12.9126 10.2602 10.2602 12.9126 7 12.9126Z" fill="#F0F0F0"/>
<path d="M7.0003 2.71826C4.63943 2.71826 2.71875 4.63895 2.71875 6.99981C2.71875 9.36068 4.63943 11.2814 7.0003 11.2814C7.79715 11.2814 8.5437 11.0623 9.18332 10.6816L8.88368 10.3711C8.85123 10.4468 8.80433 10.5146 8.74449 10.5723C8.62845 10.6843 8.4753 10.7462 8.31348 10.7462C8.06026 10.7455 7.83568 10.5947 7.73972 10.3622L7.64345 10.1289C7.43566 10.1716 7.22057 10.194 7.0003 10.194C5.23902 10.194 3.80613 8.7611 3.80613 6.99981C3.80613 5.23853 5.23902 3.80564 7.0003 3.80564C8.76158 3.80564 10.1945 5.23853 10.1945 6.99981C10.1945 7.2512 10.1652 7.49586 10.11 7.73067L10.3525 7.84097C10.5817 7.94532 10.7242 8.17517 10.7158 8.42663C10.7077 8.67574 10.5527 8.89417 10.3206 8.98452L10.6159 9.29062C11.0374 8.62776 11.2819 7.84182 11.2819 6.99981C11.2819 4.63895 9.36117 2.71826 7.0003 2.71826Z" fill="#F0F0F0"/>
<path d="M7.02865 6.39001C7.11765 6.39001 7.20389 6.40867 7.28497 6.4454L8.2874 6.90145C8.23707 6.23428 7.68027 5.7085 7.00025 5.7085C6.2871 5.7085 5.70898 6.28661 5.70898 6.99976C5.70898 7.67332 6.22481 8.22619 6.88295 8.28548L6.45472 7.24751C6.35689 7.01043 6.41296 6.74212 6.59761 6.56403C6.71359 6.45192 6.8668 6.39001 7.02865 6.39001Z" fill="#F0F0F0"/>
<path d="M9.4618 8.78162L10.1801 8.51008C10.2219 8.49411 10.2502 8.45463 10.2517 8.40981C10.2533 8.36502 10.2276 8.3237 10.1868 8.30508L7.11999 6.90984C7.07843 6.89101 7.0297 6.8994 6.99684 6.93107C6.96405 6.96271 6.95389 7.01113 6.97129 7.0533L8.25627 10.1679C8.27336 10.2094 8.31369 10.2365 8.35858 10.2366C8.38804 10.2366 8.4157 10.2251 8.43602 10.2054C8.44669 10.1951 8.45539 10.1827 8.46134 10.1684L8.75836 9.46028L9.86178 10.6037C9.90432 10.6479 9.97463 10.6491 10.0188 10.6065L10.5623 10.082C10.6065 10.0394 10.6077 9.96907 10.5651 9.92497L9.4618 8.78162Z" fill="#F0F0F0"/>
</g>
<defs>
<clipPath id="clip0_796_2076">
<rect width="14" height="14" fill="white"/>
</clipPath>
</defs>
</svg>
