<svg width="18" height="17" viewBox="0 0 18 17" fill="none" xmlns="http://www.w3.org/2000/svg">
<path d="M0.5 9.04545H2.69C2.78221 9.04484 2.87248 9.03024 2.95156 9.00312C3.03063 8.97601 3.09567 8.93737 3.14 8.89116L4.94 6.83402C4.98436 6.7828 5.05509 6.74057 5.14268 6.71299C5.23027 6.68541 5.33053 6.6738 5.43 6.67973C5.52907 6.68356 5.62363 6.70485 5.70064 6.74067C5.77766 6.77649 5.83333 6.82508 5.86 6.87973L8.09 11.1197C8.11926 11.1773 8.17942 11.2281 8.26196 11.265C8.34451 11.3019 8.44527 11.323 8.55 11.3254C8.64814 11.3236 8.74315 11.3053 8.82318 11.2728C8.90321 11.2402 8.9647 11.1949 9 11.1426L10.37 9.22831C10.4077 9.17461 10.4726 9.12854 10.5563 9.09597C10.64 9.06341 10.7387 9.04582 10.84 9.04545H13.5" stroke="#F0F0F0" stroke-width="0.8" stroke-linecap="round" stroke-linejoin="round"/>
<path d="M2.03362 7.21749C1.53171 2.56422 6.77358 0.0631844 9.45037 3.84398C13.5211 -0.983716 19.6553 4.65818 15.7517 9.42756L10.1544 15.2657C9.76752 15.6692 9.12504 15.6772 8.72823 15.2836L4.87756 11.4634" stroke="#F0F0F0"/>
</svg>
