<svg width="14" height="17" viewBox="0 0 14 17" fill="none" xmlns="http://www.w3.org/2000/svg">
<path d="M13.9986 1.78802C13.9986 1.07659 13.4578 0.5 12.7908 0.5L4.57405 0.500767C3.90705 0.500767 3.36629 1.07755 3.36647 1.78898L3.36665 3.76407H4.14047V2.64983C4.14047 2.42234 4.31329 2.23801 4.52658 2.23801H12.8399C13.0532 2.23801 13.226 2.42234 13.226 2.64983V14.0857C13.226 14.3132 13.0532 14.4975 12.8399 14.4975H7.23055V15.1406C7.23055 15.6706 7.02625 16.1521 6.6977 16.5L12.7924 16.4994C13.4594 16.4994 14.0002 15.9226 14 15.2112L13.9986 1.78802ZM8.68324 16.0404C8.3822 16.0404 8.13816 15.7801 8.13816 15.459C8.13816 15.1379 8.3822 14.8777 8.68324 14.8777C8.98428 14.8777 9.22831 15.1379 9.22831 15.459C9.22831 15.7801 8.98428 16.0404 8.68324 16.0404ZM5.35992 4.45574H1.21441C0.546512 4.45574 0 5.03866 0 5.75105V15.201C0 15.9134 0.546512 16.4964 1.21441 16.4964H5.35992C6.02782 16.4964 6.57433 15.9134 6.57433 15.201V5.75085C6.57433 5.03846 6.02782 4.45574 5.35992 4.45574ZM3.28717 16.2282C2.97552 16.2282 2.72267 15.9587 2.72267 15.6261C2.72267 15.2935 2.97534 15.024 3.28717 15.024C3.59882 15.024 3.85166 15.2935 3.85166 15.6261C3.85166 15.9587 3.59882 16.2282 3.28717 16.2282ZM5.92999 14.4008C5.92999 14.5838 5.78972 14.7334 5.61816 14.7334H0.956172C0.784611 14.7334 0.644342 14.5838 0.644342 14.4008V6.55109C0.644342 6.36811 0.784611 6.21849 0.956172 6.21849H5.61816C5.78972 6.21849 5.92999 6.36811 5.92999 6.55109V14.4008Z" fill="white"/>
</svg>
