<svg width="19" height="14" viewBox="0 0 19 14" fill="none" xmlns="http://www.w3.org/2000/svg">
<path d="M15.6297 1.04639H2.84241C2.37139 1.04639 1.91965 1.23549 1.58659 1.57209C1.25352 1.9087 1.06641 2.36523 1.06641 2.84126V11.1587C1.06641 11.6347 1.25352 12.0913 1.58659 12.4279C1.91965 12.7645 2.37139 12.9536 2.84241 12.9536H15.6297C15.8629 12.9536 16.0938 12.9071 16.3093 12.8169C16.5248 12.7267 16.7206 12.5945 16.8855 12.4279C17.0504 12.2612 17.1812 12.0633 17.2705 11.8456C17.3597 11.6278 17.4057 11.3944 17.4057 11.1587V2.84126C17.4057 2.60555 17.3597 2.37215 17.2705 2.15439C17.1812 1.93663 17.0504 1.73876 16.8855 1.57209C16.7206 1.40542 16.5248 1.27321 16.3093 1.18301C16.0938 1.09281 15.8629 1.04639 15.6297 1.04639ZM16.6953 11.1569C16.6953 11.4425 16.583 11.7164 16.3832 11.9184C16.1833 12.1204 15.9123 12.2338 15.6297 12.2338H2.84241C2.5598 12.2338 2.28876 12.1204 2.08892 11.9184C1.88908 11.7164 1.77681 11.4425 1.77681 11.1569V2.84126C1.77681 2.55564 1.88908 2.28172 2.08892 2.07976C2.28876 1.8778 2.5598 1.76434 2.84241 1.76434H15.6297C15.9123 1.76434 16.1833 1.8778 16.3832 2.07976C16.583 2.28172 16.6953 2.55564 16.6953 2.84126V11.1569Z" fill="#F0F0F0"/>
<path d="M9.05715 6.02001L7.34153 5.76873L6.57074 4.19822C6.54146 4.13801 6.49608 4.08729 6.43973 4.05183C6.38338 4.01636 6.31833 3.99756 6.25194 3.99756C6.18556 3.99756 6.12051 4.01636 6.06416 4.05183C6.00781 4.08729 5.96243 4.13801 5.93315 4.19822L5.16592 5.76873L3.45029 6.02001C3.38258 6.02771 3.31848 6.05492 3.26565 6.09841C3.21281 6.1419 3.17347 6.19984 3.15232 6.2653C3.13116 6.33076 3.12909 6.40099 3.14633 6.46761C3.16358 6.53424 3.19943 6.59444 3.2496 6.64104L4.49281 7.86335L4.19977 9.59001C4.18854 9.65601 4.19581 9.72386 4.22074 9.7859C4.24567 9.84794 4.28728 9.9017 4.34086 9.9411C4.39443 9.98049 4.45785 10.004 4.52393 10.0088C4.59001 10.0137 4.65613 9.99983 4.71481 9.96873L6.2475 9.15386L7.78198 9.96873C7.84065 9.99983 7.90677 10.0137 7.97285 10.0088C8.03894 10.004 8.10235 9.98049 8.15593 9.9411C8.20951 9.9017 8.25111 9.84794 8.27605 9.7859C8.30098 9.72386 8.30824 9.65601 8.29702 9.59001L8.00398 7.86335L9.24718 6.64104C9.29709 6.59513 9.33303 6.53581 9.35079 6.47001C9.36855 6.40421 9.36739 6.33465 9.34745 6.26949C9.32751 6.20433 9.28962 6.14626 9.23821 6.10208C9.18679 6.0579 9.12399 6.02943 9.05715 6.02001ZM7.38237 7.47207C7.34103 7.51296 7.3102 7.56344 7.29256 7.61912C7.27491 7.6748 7.271 7.73399 7.28114 7.79155L7.48361 8.98694L6.418 8.42155C6.36706 8.39451 6.31038 8.38038 6.25283 8.38038C6.19529 8.38038 6.13861 8.39451 6.08766 8.42155L5.02206 8.98694L5.22452 7.79155C5.23414 7.73413 5.22979 7.6752 5.21185 7.61985C5.1939 7.5645 5.1629 7.5144 5.12151 7.47386L4.26193 6.62668L5.45008 6.44719C5.50713 6.43901 5.56135 6.41693 5.60807 6.38284C5.65479 6.34876 5.69261 6.3037 5.71825 6.25155L6.25106 5.16386L6.78386 6.25155C6.8095 6.3037 6.84732 6.34876 6.89404 6.38284C6.94076 6.41693 6.99499 6.43901 7.05204 6.44719L8.24019 6.62668L7.38237 7.47207Z" fill="#F0F0F0"/>
<path d="M14.972 5.47412H11.0115C10.9172 5.47412 10.8269 5.51194 10.7603 5.57926C10.6937 5.64658 10.6562 5.73789 10.6562 5.8331C10.6562 5.9283 10.6937 6.01961 10.7603 6.08693C10.8269 6.15425 10.9172 6.19207 11.0115 6.19207H14.972C15.0662 6.19207 15.1565 6.15425 15.2231 6.08693C15.2897 6.01961 15.3272 5.9283 15.3272 5.8331C15.3272 5.73789 15.2897 5.64658 15.2231 5.57926C15.1565 5.51194 15.0662 5.47412 14.972 5.47412Z" fill="#F0F0F0"/>
<path d="M14.972 7.80762H11.0115C10.9172 7.80762 10.8269 7.84544 10.7603 7.91276C10.6937 7.98008 10.6562 8.07139 10.6562 8.16659C10.6562 8.2618 10.6937 8.3531 10.7603 8.42042C10.8269 8.48775 10.9172 8.52557 11.0115 8.52557H14.972C15.0662 8.52557 15.1565 8.48775 15.2231 8.42042C15.2897 8.3531 15.3272 8.2618 15.3272 8.16659C15.3272 8.07139 15.2897 7.98008 15.2231 7.91276C15.1565 7.84544 15.0662 7.80762 14.972 7.80762Z" fill="#F0F0F0"/>
</svg>
