<svg width="18" height="21" viewBox="0 0 18 21" fill="none" xmlns="http://www.w3.org/2000/svg">
<path d="M17.061 12.0904C17.061 11.8249 16.8457 11.6097 16.5802 11.6097C16.3148 11.6097 16.0995 11.8249 16.0995 12.0904H17.061ZM15.1002 16.6266L15.4884 16.9101L15.4884 16.9101L15.1002 16.6266ZM6.45825 19.3878L6.61015 18.9317L6.61015 18.9317L6.45825 19.3878ZM2.6222 16.5502L3.01386 16.2714L3.01386 16.2714L2.6222 16.5502ZM1.19784 11.9962L0.717161 11.9903L1.19784 11.9962ZM2.73334 7.47848L3.11806 7.76673L3.11806 7.76673L2.73334 7.47848ZM6.63776 4.73569L6.77845 5.19536L6.77845 5.19536L6.63776 4.73569ZM11.6183 5.25588C11.8572 5.14001 11.9569 4.85244 11.841 4.61356L9.95276 0.720897C9.83689 0.482024 9.54931 0.382311 9.31044 0.498183C9.07156 0.614055 8.97185 0.901632 9.08772 1.14051L10.7662 4.60065L7.30601 6.27909C7.06714 6.39496 6.96742 6.68253 7.0833 6.92141C7.19917 7.16028 7.48674 7.25999 7.72562 7.14412L11.6183 5.25588ZM16.0995 12.0904C16.0995 13.6192 15.6136 15.1085 14.712 16.3431L15.4884 16.9101C16.5103 15.5109 17.061 13.8231 17.061 12.0904H16.0995ZM14.712 16.3431C13.8104 17.5777 12.5396 18.4938 11.0834 18.9591L11.376 19.8749C13.0264 19.3476 14.4666 18.3093 15.4884 16.9101L14.712 16.3431ZM11.0834 18.9591C9.6271 19.4244 8.06062 19.4148 6.61015 18.9317L6.30634 19.8439C7.9502 20.3914 9.72554 20.4023 11.376 19.8749L11.0834 18.9591ZM6.61015 18.9317C5.15969 18.4486 3.9003 17.517 3.01386 16.2714L2.23054 16.8289C3.23517 18.2405 4.66248 19.2964 6.30634 19.8439L6.61015 18.9317ZM3.01386 16.2714C2.12742 15.0258 1.6598 13.5308 1.67852 12.0021L0.717161 11.9903C0.695934 13.7228 1.2259 15.4172 2.23054 16.8289L3.01386 16.2714ZM1.67852 12.0021C1.69725 10.4734 2.20136 8.99021 3.11806 7.76673L2.34863 7.19024C1.30971 8.57685 0.738387 10.2578 0.717161 11.9903L1.67852 12.0021ZM3.11806 7.76673C4.03475 6.54324 5.31658 5.64278 6.77845 5.19536L6.49708 4.27602C4.84029 4.78309 3.38755 5.80362 2.34863 7.19024L3.11806 7.76673ZM6.77845 5.19536C8.24032 4.74794 9.80656 4.77672 11.251 5.27756L11.566 4.36918C9.92893 3.80156 8.15386 3.76894 6.49708 4.27602L6.77845 5.19536Z" fill="#E53E14"/>
<path d="M4.94075 14.6035C4.8909 14.6035 4.84852 14.5886 4.81362 14.5586C4.78371 14.5238 4.76876 14.4814 4.76876 14.4315V14.1922C4.76876 14.1474 4.78122 14.0975 4.80615 14.0427C4.83107 13.9878 4.88093 13.928 4.9557 13.8632L6.54101 12.2779C6.79525 12.0635 6.99466 11.8816 7.13923 11.732C7.28879 11.5775 7.39348 11.4304 7.4533 11.2908C7.51811 11.1512 7.55051 11.0067 7.55051 10.8571C7.55051 10.573 7.47075 10.3486 7.31122 10.1841C7.1517 10.0146 6.9149 9.92987 6.60083 9.92987C6.40142 9.92987 6.22943 9.97224 6.08486 10.057C5.94029 10.1368 5.82563 10.2489 5.74088 10.3935C5.66111 10.5331 5.60877 10.6926 5.58384 10.8721C5.57387 10.9369 5.54645 10.9817 5.50159 11.0067C5.4617 11.0316 5.42431 11.0441 5.38942 11.0441H5.00057C4.9557 11.0441 4.91831 11.0316 4.8884 11.0067C4.85849 10.9768 4.84354 10.9419 4.84354 10.902C4.84852 10.7125 4.8884 10.5231 4.96318 10.3337C5.03796 10.1392 5.14763 9.96476 5.29221 9.81022C5.44176 9.65568 5.62372 9.53105 5.83809 9.43633C6.05744 9.33663 6.31169 9.28677 6.60083 9.28677C6.99466 9.28677 7.31621 9.35906 7.56547 9.50363C7.81972 9.64322 8.00666 9.83016 8.12631 10.0645C8.24595 10.2988 8.30578 10.5555 8.30578 10.8347C8.30578 11.054 8.26839 11.2559 8.19361 11.4404C8.11883 11.6199 8.00915 11.7968 7.86458 11.9713C7.725 12.1408 7.55051 12.3153 7.34113 12.4948L5.90539 13.9529H8.23847C8.29331 13.9529 8.33569 13.9679 8.3656 13.9978C8.40049 14.0277 8.41794 14.0701 8.41794 14.1249V14.4315C8.41794 14.4814 8.40049 14.5238 8.3656 14.5586C8.33569 14.5886 8.29331 14.6035 8.23847 14.6035H4.94075ZM11.7168 14.6035C11.6669 14.6035 11.6246 14.5886 11.5897 14.5586C11.5597 14.5238 11.5448 14.4814 11.5448 14.4315V13.3547H9.12197C9.07212 13.3547 9.02974 13.3398 8.99485 13.3098C8.96493 13.275 8.94998 13.2326 8.94998 13.1827V12.8836C8.94998 12.8637 8.95496 12.8338 8.96493 12.7939C8.97989 12.749 9.00232 12.7041 9.03224 12.6593L11.2756 9.49615C11.3354 9.4114 11.4276 9.36903 11.5523 9.36903H12.0907C12.1405 9.36903 12.1804 9.38648 12.2103 9.42137C12.2452 9.45129 12.2627 9.49117 12.2627 9.54102V12.7041H12.9357C12.9905 12.7041 13.0329 12.7216 13.0628 12.7565C13.0977 12.7864 13.1151 12.8263 13.1151 12.8761V13.1827C13.1151 13.2326 13.0977 13.275 13.0628 13.3098C13.0329 13.3398 12.993 13.3547 12.9431 13.3547H12.2627V14.4315C12.2627 14.4814 12.2452 14.5238 12.2103 14.5586C12.1804 14.5886 12.1405 14.6035 12.0907 14.6035H11.7168ZM9.75011 12.7191H11.5523V10.1542L9.75011 12.7191Z" fill="#E53E14"/>
</svg>
