<svg width="17" height="16" viewBox="0 0 17 16" fill="none" xmlns="http://www.w3.org/2000/svg">
<path fill-rule="evenodd" clip-rule="evenodd" d="M8.71549 3.33333C5.76998 3.33333 3.38216 5.72115 3.38216 8.66667C3.38216 10.1415 3.97989 11.4754 4.94791 12.4415C5.20851 12.7016 5.20891 13.1238 4.94881 13.3844C4.68871 13.645 4.2666 13.6454 4.006 13.3853C2.79763 12.1792 2.04883 10.5098 2.04883 8.66667C2.04883 4.98477 5.0336 2 8.71549 2C12.3974 2 15.3822 4.98477 15.3822 8.66667C15.3822 10.5074 14.6352 12.175 13.4295 13.3807C13.1692 13.6411 12.7471 13.6411 12.4867 13.3807C12.2264 13.1204 12.2264 12.6983 12.4867 12.4379C13.4526 11.472 14.0488 10.1396 14.0488 8.66667C14.0488 5.72115 11.661 3.33333 8.71549 3.33333Z" fill="white"/>
<path fill-rule="evenodd" clip-rule="evenodd" d="M11.8529 6.47157C12.1133 6.21122 12.1133 5.78911 11.8529 5.52876C11.5926 5.26841 11.1705 5.26841 10.9101 5.52876L9.57712 6.86174C9.31603 6.7368 9.02361 6.66683 8.71484 6.66683C7.61027 6.66683 6.71484 7.56226 6.71484 8.66683C6.71484 9.7714 7.61027 10.6668 8.71484 10.6668C9.81941 10.6668 10.7148 9.7714 10.7148 8.66683C10.7148 8.35807 10.6449 8.06564 10.5199 7.80455L11.8529 6.47157ZM8.04818 8.66683C8.04818 8.29864 8.34665 8.00016 8.71484 8.00016C9.08303 8.00016 9.38151 8.29864 9.38151 8.66683C9.38151 9.03502 9.08303 9.3335 8.71484 9.3335C8.34665 9.3335 8.04818 9.03502 8.04818 8.66683Z" fill="white"/>
</svg>
