<svg width="138" height="173" viewBox="0 0 138 173" fill="none" xmlns="http://www.w3.org/2000/svg">
<g clip-path="url(#clip0_427_8080)">
<path d="M69.0006 123.128C60.6675 123.128 52.8767 125.445 46.2383 129.467V131.623H91.7654V129.467C85.127 125.445 77.3362 123.128 69.0031 123.128H69.0006Z" fill="#FED100"/>
<path d="M97.7877 131.623H40.209V167.562H97.7877V131.623Z" fill="#97512C"/>
<path d="M101.767 167.562H36.2344V173H101.767V167.562Z" fill="#7C3E25"/>
<path d="M73.5491 87.8263C72.133 88.3554 70.6015 88.6437 68.9996 88.6437C67.3978 88.6437 65.8687 88.3554 64.4527 87.8288L64.4602 87.8113C64.4602 85.1511 63.1823 82.3781 60.6238 80.4325L60.5761 80.4074C51.6354 74.4076 44.4246 66.0359 39.8475 56.1949H39.845C31.8408 39.1331 27.3691 20.0881 27.3691 0H110.63C110.63 20.0881 106.158 39.1331 98.1518 56.1949H98.1492C93.5722 66.0333 86.3613 74.405 77.4206 80.4049L77.3754 80.43C74.817 82.3781 73.539 85.1511 73.539 87.8088L73.5441 87.8263H73.5491Z" fill="#FED100"/>
<path d="M72.8708 88.0571C72.8708 90.5769 73.9805 92.6755 75.7381 94.2174H75.7431C76.3532 94.7766 76.7348 95.5739 76.7348 96.4664C76.7348 98.1588 75.3614 99.5303 73.6667 99.5303C73.6366 99.5303 73.6064 99.5303 73.5788 99.5303H64.4197C64.3895 99.5303 64.3594 99.5303 64.3318 99.5303C62.637 99.5303 61.2637 98.1588 61.2637 96.4664C61.2637 95.5739 61.6453 94.7791 62.2554 94.2174H62.2604C64.0179 92.678 65.1277 90.5769 65.1277 88.0571H72.8708Z" fill="#FED100"/>
<path d="M76.7585 125.739C74.3005 126.463 71.6969 126.852 69.0004 126.852C66.3038 126.852 63.7027 126.463 61.2422 125.739L61.2648 125.666V120.594C63.1905 116.048 64.2551 111.049 64.2551 105.804C64.2551 103.645 64.0743 101.529 63.7278 99.4702H74.2704C73.9239 101.531 73.7431 103.647 73.7431 105.804C73.7431 111.051 74.8077 116.048 76.7334 120.594V125.666L76.756 125.739H76.7585Z" fill="#FFDB31"/>
<path d="M39.5893 79.3793C37.4677 79.3793 35.4139 78.6196 33.807 77.2432C32.5065 76.1299 32.3584 74.1743 33.4731 72.8755C34.5879 71.5768 36.5463 71.4288 37.8468 72.5421C38.1883 72.8354 38.7683 73.1864 39.5893 73.1864C41.0681 73.1864 42.2707 71.9855 42.2707 70.5087C42.2707 70.2981 42.2456 70.0875 42.1979 69.8869C41.7786 68.4076 40.9802 67.0562 39.8805 65.9656C39.5792 65.7374 39.3608 65.4992 39.2227 65.3438L12.0792 39.9052C3.08319 31.4784 -3.51 18.2802 2.03622 7.79744C4.40133 3.32452 9.12653 0.38853 14.1706 0.21553C14.2459 0.210515 14.3212 0.208008 14.3966 0.208008H14.6426C14.7154 0.208008 14.7882 0.210515 14.861 0.21553C22.3681 0.46124 28.4014 6.63659 28.4014 14.1934C28.4014 17.7086 27.0908 21.0683 24.7107 23.6533C23.5507 24.9119 21.5898 24.9946 20.3294 23.8388C19.069 22.6805 18.9862 20.7223 20.1436 19.4637C21.4693 18.0245 22.1999 16.1516 22.1999 14.1934C22.1999 9.93863 18.7677 6.47111 14.5221 6.40341C11.6197 6.44854 8.88299 8.12338 7.52217 10.6908C3.52508 18.2476 9.2822 28.7906 16.3248 35.3897L43.5562 60.9109C43.6341 60.9837 43.6993 61.0514 43.7546 61.1115C43.8249 61.1667 43.8952 61.2269 43.9605 61.2895C45.9866 63.1925 47.4479 65.607 48.1885 68.2722C48.1961 68.2973 48.2011 68.3224 48.2086 68.3475C48.3844 69.052 48.4748 69.7791 48.4748 70.5087C48.4748 75.4003 44.4902 79.3793 39.5918 79.3793H39.5893ZM39.298 65.4165C39.298 65.4165 39.3081 65.424 39.3106 65.429L39.298 65.4165Z" fill="#FED100"/>
<path d="M89.5273 70.5087C89.5273 69.7791 89.6177 69.052 89.7935 68.3475C89.801 68.3224 89.806 68.2973 89.8136 68.2722C90.5542 65.607 92.0155 63.1925 94.0416 61.2895C94.1094 61.2269 94.1772 61.1667 94.2475 61.1115C94.3028 61.0514 94.368 60.9837 94.4459 60.9109L121.677 35.3897C128.717 28.7906 134.477 18.2476 130.48 10.6908C129.119 8.12088 126.382 6.44854 123.48 6.40341C119.234 6.4686 115.802 9.93863 115.802 14.1934C115.802 16.1516 116.533 18.022 117.858 19.4637C119.018 20.7223 118.936 22.683 117.673 23.8388C116.412 24.9972 114.449 24.9144 113.291 23.6533C110.911 21.0658 109.601 17.7061 109.601 14.1934C109.601 6.63659 115.634 0.46124 123.141 0.21553C123.214 0.210515 123.287 0.208008 123.359 0.208008H123.606C123.681 0.208008 123.756 0.210515 123.832 0.21553C128.873 0.38853 133.601 3.32702 135.966 7.79744C141.512 18.2802 134.919 31.4784 125.925 39.9052L98.7819 65.3438C98.6438 65.4992 98.4254 65.7349 98.1241 65.9656C97.0244 67.0562 96.226 68.4051 95.8067 69.8869C95.759 70.0875 95.7339 70.2981 95.7339 70.5087C95.7339 71.9855 96.9365 73.1864 98.4153 73.1864C99.2364 73.1864 99.8163 72.8379 100.158 72.5421C101.458 71.4288 103.417 71.5768 104.531 72.8755C105.646 74.1743 105.498 76.1299 104.198 77.2432C102.591 78.6196 100.537 79.3793 98.4153 79.3793C93.5169 79.3793 89.5324 75.4003 89.5324 70.5087H89.5273ZM98.689 65.429C98.689 65.429 98.6965 65.4215 98.7016 65.4165L98.689 65.429Z" fill="#FED100"/>
<path d="M45.0453 3.78351H30.9551C30.9551 18.1225 33.7621 31.8095 38.8589 44.3207C38.0906 40.4996 37.6864 36.5482 37.6864 32.5015C37.6864 22.0914 40.3578 12.3031 45.0478 3.78101L45.0453 3.78351Z" fill="#FFDF5A"/>
<path d="M40.209 167.562H97.7877V131.623C97.7877 131.623 78.5454 167.562 40.209 167.562Z" fill="#8D492B"/>
<path d="M89.9979 139.917H48.0059V160.451H89.9979V139.917Z" fill="#FED100"/>
<path d="M4.38836 11.892C6.9016 7.14325 11.9206 4.02173 17.2785 3.8387C17.3588 3.83369 17.4366 3.83118 17.5195 3.83118H17.7806C17.8584 3.83118 17.9363 3.83369 18.0141 3.8387C19.6386 3.89135 21.1977 4.20977 22.6514 4.74632C20.5098 2.7656 17.6752 1.5195 14.5568 1.4167C14.4916 1.41169 14.4263 1.40918 14.361 1.40918H14.14C14.0723 1.40918 14.0045 1.41169 13.9367 1.4167C9.41987 1.57215 5.18928 4.20225 3.07022 8.20633C0.790475 12.5163 0.803029 17.3377 2.26177 22.0238C2.06844 18.5337 2.69612 15.0937 4.38836 11.892Z" fill="#FFDF5A"/>
<path d="M48.4746 69.6162C51.9896 73.7381 56.062 77.3736 60.5763 80.4049L60.6241 80.43C63.1825 82.3781 64.4605 85.1511 64.4605 87.8088L64.4529 87.8263C65.869 88.3529 67.4005 88.6412 68.9999 88.6412C70.5992 88.6412 72.1333 88.3529 73.5493 87.8238L73.5443 87.8063C73.5443 85.1461 74.8223 82.3731 77.3807 80.4275L77.4259 80.4024C86.3666 74.4025 93.5774 66.0308 98.1545 56.1899H98.157C106.159 39.1331 110.63 20.0881 110.63 0C92.2342 72.7728 48.6755 69.6162 48.4746 69.6162Z" fill="#FCC200"/>
<path d="M88.1556 42.8993C89.8726 32.3365 82.6897 22.3837 72.1122 20.6691C61.5347 18.9545 51.568 26.1274 49.851 36.6902C48.1341 47.2531 55.317 57.2059 65.8945 58.9205C76.472 60.635 86.4386 53.4621 88.1556 42.8993Z" fill="#FFF3C0"/>
</g>
<defs>
<clipPath id="clip0_427_8080">
<rect width="138" height="173" fill="white"/>
</clipPath>
</defs>
</svg>
